<?xml version="1.0" encoding="utf-8" standalone="no"?>
<!DOCTYPE svg PUBLIC "-//W3C//DTD SVG 1.1//EN"
  "http://www.w3.org/Graphics/SVG/1.1/DTD/svg11.dtd">
<svg xmlns:xlink="http://www.w3.org/1999/xlink" width="1008.005375pt" height="475.947562pt" viewBox="0 0 1008.005375 475.947562" xmlns="http://www.w3.org/2000/svg" version="1.1">
 <metadata>
  <rdf:RDF xmlns:dc="http://purl.org/dc/elements/1.1/" xmlns:cc="http://creativecommons.org/ns#" xmlns:rdf="http://www.w3.org/1999/02/22-rdf-syntax-ns#">
   <cc:Work>
    <dc:type rdf:resource="http://purl.org/dc/dcmitype/StillImage"/>
    <dc:date>2024-04-17T09:50:49.983620</dc:date>
    <dc:format>image/svg+xml</dc:format>
    <dc:creator>
     <cc:Agent>
      <dc:title>Matplotlib v3.8.2, https://matplotlib.org/</dc:title>
     </cc:Agent>
    </dc:creator>
   </cc:Work>
  </rdf:RDF>
 </metadata>
 <defs>
  <style type="text/css">*{stroke-linejoin: round; stroke-linecap: butt}</style>
 </defs>
 <g id="figure_1">
  <g id="patch_1">
   <path d="M 0 475.947562 
L 1008.005375 475.947562 
L 1008.005375 0 
L 0 0 
z
" style="fill: #f0f0f0"/>
  </g>
  <g id="axes_1">
   <g id="patch_2">
    <path d="M 61.205375 433.08 
L 488.296284 433.08 
L 488.296284 96.12 
L 61.205375 96.12 
z
" style="fill: #f0f0f0"/>
   </g>
   <g id="matplotlib.axis_1">
    <g id="xtick_1">
     <g id="line2d_1">
      <path d="M 80.618598 433.08 
L 80.618598 96.12 
" clip-path="url(#p415b737f50)" style="fill: none; stroke: #cbcbcb"/>
     </g>
     <g id="line2d_2"/>
     <g id="text_1">
      <!-- 0 -->
      <g transform="translate(76.725942 446.600937) scale(0.14 -0.14)">
       <defs>
        <path id="ArialMT-30" d="M 266 2259 
Q 266 3072 433 3567 
Q 600 4063 929 4331 
Q 1259 4600 1759 4600 
Q 2128 4600 2406 4451 
Q 2684 4303 2865 4023 
Q 3047 3744 3150 3342 
Q 3253 2941 3253 2259 
Q 3253 1453 3087 958 
Q 2922 463 2592 192 
Q 2263 -78 1759 -78 
Q 1097 -78 719 397 
Q 266 969 266 2259 
z
M 844 2259 
Q 844 1131 1108 757 
Q 1372 384 1759 384 
Q 2147 384 2411 759 
Q 2675 1134 2675 2259 
Q 2675 3391 2411 3762 
Q 2147 4134 1753 4134 
Q 1366 4134 1134 3806 
Q 844 3388 844 2259 
z
" transform="scale(0.015625)"/>
       </defs>
       <use xlink:href="#ArialMT-30"/>
      </g>
     </g>
    </g>
    <g id="xtick_2">
     <g id="line2d_3">
      <path d="M 165.023916 433.08 
L 165.023916 96.12 
" clip-path="url(#p415b737f50)" style="fill: none; stroke: #cbcbcb"/>
     </g>
     <g id="line2d_4"/>
     <g id="text_2">
      <!-- 5 -->
      <g transform="translate(161.13126 446.600937) scale(0.14 -0.14)">
       <defs>
        <path id="ArialMT-35" d="M 266 1200 
L 856 1250 
Q 922 819 1161 601 
Q 1400 384 1738 384 
Q 2144 384 2425 690 
Q 2706 997 2706 1503 
Q 2706 1984 2436 2262 
Q 2166 2541 1728 2541 
Q 1456 2541 1237 2417 
Q 1019 2294 894 2097 
L 366 2166 
L 809 4519 
L 3088 4519 
L 3088 3981 
L 1259 3981 
L 1013 2750 
Q 1425 3038 1878 3038 
Q 2478 3038 2890 2622 
Q 3303 2206 3303 1553 
Q 3303 931 2941 478 
Q 2500 -78 1738 -78 
Q 1113 -78 717 272 
Q 322 622 266 1200 
z
" transform="scale(0.015625)"/>
       </defs>
       <use xlink:href="#ArialMT-35"/>
      </g>
     </g>
    </g>
    <g id="xtick_3">
     <g id="line2d_5">
      <path d="M 249.429234 433.08 
L 249.429234 96.12 
" clip-path="url(#p415b737f50)" style="fill: none; stroke: #cbcbcb"/>
     </g>
     <g id="line2d_6"/>
     <g id="text_3">
      <!-- 10 -->
      <g transform="translate(241.643922 446.600937) scale(0.14 -0.14)">
       <defs>
        <path id="ArialMT-31" d="M 2384 0 
L 1822 0 
L 1822 3584 
Q 1619 3391 1289 3197 
Q 959 3003 697 2906 
L 697 3450 
Q 1169 3672 1522 3987 
Q 1875 4303 2022 4600 
L 2384 4600 
L 2384 0 
z
" transform="scale(0.015625)"/>
       </defs>
       <use xlink:href="#ArialMT-31"/>
       <use xlink:href="#ArialMT-30" x="55.615234"/>
      </g>
     </g>
    </g>
    <g id="xtick_4">
     <g id="line2d_7">
      <path d="M 333.834552 433.08 
L 333.834552 96.12 
" clip-path="url(#p415b737f50)" style="fill: none; stroke: #cbcbcb"/>
     </g>
     <g id="line2d_8"/>
     <g id="text_4">
      <!-- 15 -->
      <g transform="translate(326.04924 446.600937) scale(0.14 -0.14)">
       <use xlink:href="#ArialMT-31"/>
       <use xlink:href="#ArialMT-35" x="55.615234"/>
      </g>
     </g>
    </g>
    <g id="xtick_5">
     <g id="line2d_9">
      <path d="M 418.23987 433.08 
L 418.23987 96.12 
" clip-path="url(#p415b737f50)" style="fill: none; stroke: #cbcbcb"/>
     </g>
     <g id="line2d_10"/>
     <g id="text_5">
      <!-- 20 -->
      <g transform="translate(410.454558 446.600937) scale(0.14 -0.14)">
       <defs>
        <path id="ArialMT-32" d="M 3222 541 
L 3222 0 
L 194 0 
Q 188 203 259 391 
Q 375 700 629 1000 
Q 884 1300 1366 1694 
Q 2113 2306 2375 2664 
Q 2638 3022 2638 3341 
Q 2638 3675 2398 3904 
Q 2159 4134 1775 4134 
Q 1369 4134 1125 3890 
Q 881 3647 878 3216 
L 300 3275 
Q 359 3922 746 4261 
Q 1134 4600 1788 4600 
Q 2447 4600 2831 4234 
Q 3216 3869 3216 3328 
Q 3216 3053 3103 2787 
Q 2991 2522 2730 2228 
Q 2469 1934 1863 1422 
Q 1356 997 1212 845 
Q 1069 694 975 541 
L 3222 541 
z
" transform="scale(0.015625)"/>
       </defs>
       <use xlink:href="#ArialMT-32"/>
       <use xlink:href="#ArialMT-30" x="55.615234"/>
      </g>
     </g>
    </g>
    <g id="text_6">
     <!-- Order hour -->
     <g transform="translate(234.13683 465.408562) scale(0.168 -0.168)">
      <defs>
       <path id="ArialMT-4f" d="M 309 2231 
Q 309 3372 921 4017 
Q 1534 4663 2503 4663 
Q 3138 4663 3647 4359 
Q 4156 4056 4423 3514 
Q 4691 2972 4691 2284 
Q 4691 1588 4409 1038 
Q 4128 488 3612 205 
Q 3097 -78 2500 -78 
Q 1853 -78 1343 234 
Q 834 547 571 1087 
Q 309 1628 309 2231 
z
M 934 2222 
Q 934 1394 1379 917 
Q 1825 441 2497 441 
Q 3181 441 3623 922 
Q 4066 1403 4066 2288 
Q 4066 2847 3877 3264 
Q 3688 3681 3323 3911 
Q 2959 4141 2506 4141 
Q 1863 4141 1398 3698 
Q 934 3256 934 2222 
z
" transform="scale(0.015625)"/>
       <path id="ArialMT-72" d="M 416 0 
L 416 3319 
L 922 3319 
L 922 2816 
Q 1116 3169 1280 3281 
Q 1444 3394 1641 3394 
Q 1925 3394 2219 3213 
L 2025 2691 
Q 1819 2813 1613 2813 
Q 1428 2813 1281 2702 
Q 1134 2591 1072 2394 
Q 978 2094 978 1738 
L 978 0 
L 416 0 
z
" transform="scale(0.015625)"/>
       <path id="ArialMT-64" d="M 2575 0 
L 2575 419 
Q 2259 -75 1647 -75 
Q 1250 -75 917 144 
Q 584 363 401 755 
Q 219 1147 219 1656 
Q 219 2153 384 2558 
Q 550 2963 881 3178 
Q 1213 3394 1622 3394 
Q 1922 3394 2156 3267 
Q 2391 3141 2538 2938 
L 2538 4581 
L 3097 4581 
L 3097 0 
L 2575 0 
z
M 797 1656 
Q 797 1019 1065 703 
Q 1334 388 1700 388 
Q 2069 388 2326 689 
Q 2584 991 2584 1609 
Q 2584 2291 2321 2609 
Q 2059 2928 1675 2928 
Q 1300 2928 1048 2622 
Q 797 2316 797 1656 
z
" transform="scale(0.015625)"/>
       <path id="ArialMT-65" d="M 2694 1069 
L 3275 997 
Q 3138 488 2766 206 
Q 2394 -75 1816 -75 
Q 1088 -75 661 373 
Q 234 822 234 1631 
Q 234 2469 665 2931 
Q 1097 3394 1784 3394 
Q 2450 3394 2872 2941 
Q 3294 2488 3294 1666 
Q 3294 1616 3291 1516 
L 816 1516 
Q 847 969 1125 678 
Q 1403 388 1819 388 
Q 2128 388 2347 550 
Q 2566 713 2694 1069 
z
M 847 1978 
L 2700 1978 
Q 2663 2397 2488 2606 
Q 2219 2931 1791 2931 
Q 1403 2931 1139 2672 
Q 875 2413 847 1978 
z
" transform="scale(0.015625)"/>
       <path id="ArialMT-20" transform="scale(0.015625)"/>
       <path id="ArialMT-68" d="M 422 0 
L 422 4581 
L 984 4581 
L 984 2938 
Q 1378 3394 1978 3394 
Q 2347 3394 2619 3248 
Q 2891 3103 3008 2847 
Q 3125 2591 3125 2103 
L 3125 0 
L 2563 0 
L 2563 2103 
Q 2563 2525 2380 2717 
Q 2197 2909 1863 2909 
Q 1613 2909 1392 2779 
Q 1172 2650 1078 2428 
Q 984 2206 984 1816 
L 984 0 
L 422 0 
z
" transform="scale(0.015625)"/>
       <path id="ArialMT-6f" d="M 213 1659 
Q 213 2581 725 3025 
Q 1153 3394 1769 3394 
Q 2453 3394 2887 2945 
Q 3322 2497 3322 1706 
Q 3322 1066 3130 698 
Q 2938 331 2570 128 
Q 2203 -75 1769 -75 
Q 1072 -75 642 372 
Q 213 819 213 1659 
z
M 791 1659 
Q 791 1022 1069 705 
Q 1347 388 1769 388 
Q 2188 388 2466 706 
Q 2744 1025 2744 1678 
Q 2744 2294 2464 2611 
Q 2184 2928 1769 2928 
Q 1347 2928 1069 2612 
Q 791 2297 791 1659 
z
" transform="scale(0.015625)"/>
       <path id="ArialMT-75" d="M 2597 0 
L 2597 488 
Q 2209 -75 1544 -75 
Q 1250 -75 995 37 
Q 741 150 617 320 
Q 494 491 444 738 
Q 409 903 409 1263 
L 409 3319 
L 972 3319 
L 972 1478 
Q 972 1038 1006 884 
Q 1059 663 1231 536 
Q 1403 409 1656 409 
Q 1909 409 2131 539 
Q 2353 669 2445 892 
Q 2538 1116 2538 1541 
L 2538 3319 
L 3100 3319 
L 3100 0 
L 2597 0 
z
" transform="scale(0.015625)"/>
      </defs>
      <use xlink:href="#ArialMT-4f"/>
      <use xlink:href="#ArialMT-72" x="77.783203"/>
      <use xlink:href="#ArialMT-64" x="111.083984"/>
      <use xlink:href="#ArialMT-65" x="166.699219"/>
      <use xlink:href="#ArialMT-72" x="222.314453"/>
      <use xlink:href="#ArialMT-20" x="255.615234"/>
      <use xlink:href="#ArialMT-68" x="283.398438"/>
      <use xlink:href="#ArialMT-6f" x="339.013672"/>
      <use xlink:href="#ArialMT-75" x="394.628906"/>
      <use xlink:href="#ArialMT-72" x="450.244141"/>
     </g>
    </g>
   </g>
   <g id="matplotlib.axis_2">
    <g id="ytick_1">
     <g id="line2d_11">
      <path d="M 61.205375 433.08 
L 488.296284 433.08 
" clip-path="url(#p415b737f50)" style="fill: none; stroke: #cbcbcb"/>
     </g>
     <g id="line2d_12"/>
     <g id="text_7">
      <!-- 0 -->
      <g transform="translate(49.920063 438.090469) scale(0.14 -0.14)">
       <use xlink:href="#ArialMT-30"/>
      </g>
     </g>
    </g>
    <g id="ytick_2">
     <g id="line2d_13">
      <path d="M 61.205375 391.725066 
L 488.296284 391.725066 
" clip-path="url(#p415b737f50)" style="fill: none; stroke: #cbcbcb"/>
     </g>
     <g id="line2d_14"/>
     <g id="text_8">
      <!-- 200 -->
      <g transform="translate(34.349438 396.735535) scale(0.14 -0.14)">
       <use xlink:href="#ArialMT-32"/>
       <use xlink:href="#ArialMT-30" x="55.615234"/>
       <use xlink:href="#ArialMT-30" x="111.230469"/>
      </g>
     </g>
    </g>
    <g id="ytick_3">
     <g id="line2d_15">
      <path d="M 61.205375 350.370133 
L 488.296284 350.370133 
" clip-path="url(#p415b737f50)" style="fill: none; stroke: #cbcbcb"/>
     </g>
     <g id="line2d_16"/>
     <g id="text_9">
      <!-- 400 -->
      <g transform="translate(34.349438 355.380601) scale(0.14 -0.14)">
       <defs>
        <path id="ArialMT-34" d="M 2069 0 
L 2069 1097 
L 81 1097 
L 81 1613 
L 2172 4581 
L 2631 4581 
L 2631 1613 
L 3250 1613 
L 3250 1097 
L 2631 1097 
L 2631 0 
L 2069 0 
z
M 2069 1613 
L 2069 3678 
L 634 1613 
L 2069 1613 
z
" transform="scale(0.015625)"/>
       </defs>
       <use xlink:href="#ArialMT-34"/>
       <use xlink:href="#ArialMT-30" x="55.615234"/>
       <use xlink:href="#ArialMT-30" x="111.230469"/>
      </g>
     </g>
    </g>
    <g id="ytick_4">
     <g id="line2d_17">
      <path d="M 61.205375 309.015199 
L 488.296284 309.015199 
" clip-path="url(#p415b737f50)" style="fill: none; stroke: #cbcbcb"/>
     </g>
     <g id="line2d_18"/>
     <g id="text_10">
      <!-- 600 -->
      <g transform="translate(34.349438 314.025668) scale(0.14 -0.14)">
       <defs>
        <path id="ArialMT-36" d="M 3184 3459 
L 2625 3416 
Q 2550 3747 2413 3897 
Q 2184 4138 1850 4138 
Q 1581 4138 1378 3988 
Q 1113 3794 959 3422 
Q 806 3050 800 2363 
Q 1003 2672 1297 2822 
Q 1591 2972 1913 2972 
Q 2475 2972 2870 2558 
Q 3266 2144 3266 1488 
Q 3266 1056 3080 686 
Q 2894 316 2569 119 
Q 2244 -78 1831 -78 
Q 1128 -78 684 439 
Q 241 956 241 2144 
Q 241 3472 731 4075 
Q 1159 4600 1884 4600 
Q 2425 4600 2770 4297 
Q 3116 3994 3184 3459 
z
M 888 1484 
Q 888 1194 1011 928 
Q 1134 663 1356 523 
Q 1578 384 1822 384 
Q 2178 384 2434 671 
Q 2691 959 2691 1453 
Q 2691 1928 2437 2201 
Q 2184 2475 1800 2475 
Q 1419 2475 1153 2201 
Q 888 1928 888 1484 
z
" transform="scale(0.015625)"/>
       </defs>
       <use xlink:href="#ArialMT-36"/>
       <use xlink:href="#ArialMT-30" x="55.615234"/>
       <use xlink:href="#ArialMT-30" x="111.230469"/>
      </g>
     </g>
    </g>
    <g id="ytick_5">
     <g id="line2d_19">
      <path d="M 61.205375 267.660265 
L 488.296284 267.660265 
" clip-path="url(#p415b737f50)" style="fill: none; stroke: #cbcbcb"/>
     </g>
     <g id="line2d_20"/>
     <g id="text_11">
      <!-- 800 -->
      <g transform="translate(34.349438 272.670734) scale(0.14 -0.14)">
       <defs>
        <path id="ArialMT-38" d="M 1131 2484 
Q 781 2613 612 2850 
Q 444 3088 444 3419 
Q 444 3919 803 4259 
Q 1163 4600 1759 4600 
Q 2359 4600 2725 4251 
Q 3091 3903 3091 3403 
Q 3091 3084 2923 2848 
Q 2756 2613 2416 2484 
Q 2838 2347 3058 2040 
Q 3278 1734 3278 1309 
Q 3278 722 2862 322 
Q 2447 -78 1769 -78 
Q 1091 -78 675 323 
Q 259 725 259 1325 
Q 259 1772 486 2073 
Q 713 2375 1131 2484 
z
M 1019 3438 
Q 1019 3113 1228 2906 
Q 1438 2700 1772 2700 
Q 2097 2700 2305 2904 
Q 2513 3109 2513 3406 
Q 2513 3716 2298 3927 
Q 2084 4138 1766 4138 
Q 1444 4138 1231 3931 
Q 1019 3725 1019 3438 
z
M 838 1322 
Q 838 1081 952 856 
Q 1066 631 1291 507 
Q 1516 384 1775 384 
Q 2178 384 2440 643 
Q 2703 903 2703 1303 
Q 2703 1709 2433 1975 
Q 2163 2241 1756 2241 
Q 1359 2241 1098 1978 
Q 838 1716 838 1322 
z
" transform="scale(0.015625)"/>
       </defs>
       <use xlink:href="#ArialMT-38"/>
       <use xlink:href="#ArialMT-30" x="55.615234"/>
       <use xlink:href="#ArialMT-30" x="111.230469"/>
      </g>
     </g>
    </g>
    <g id="ytick_6">
     <g id="line2d_21">
      <path d="M 61.205375 226.305331 
L 488.296284 226.305331 
" clip-path="url(#p415b737f50)" style="fill: none; stroke: #cbcbcb"/>
     </g>
     <g id="line2d_22"/>
     <g id="text_12">
      <!-- 1000 -->
      <g transform="translate(26.564125 231.3158) scale(0.14 -0.14)">
       <use xlink:href="#ArialMT-31"/>
       <use xlink:href="#ArialMT-30" x="55.615234"/>
       <use xlink:href="#ArialMT-30" x="111.230469"/>
       <use xlink:href="#ArialMT-30" x="166.845703"/>
      </g>
     </g>
    </g>
    <g id="ytick_7">
     <g id="line2d_23">
      <path d="M 61.205375 184.950398 
L 488.296284 184.950398 
" clip-path="url(#p415b737f50)" style="fill: none; stroke: #cbcbcb"/>
     </g>
     <g id="line2d_24"/>
     <g id="text_13">
      <!-- 1200 -->
      <g transform="translate(26.564125 189.960866) scale(0.14 -0.14)">
       <use xlink:href="#ArialMT-31"/>
       <use xlink:href="#ArialMT-32" x="55.615234"/>
       <use xlink:href="#ArialMT-30" x="111.230469"/>
       <use xlink:href="#ArialMT-30" x="166.845703"/>
      </g>
     </g>
    </g>
    <g id="ytick_8">
     <g id="line2d_25">
      <path d="M 61.205375 143.595464 
L 488.296284 143.595464 
" clip-path="url(#p415b737f50)" style="fill: none; stroke: #cbcbcb"/>
     </g>
     <g id="line2d_26"/>
     <g id="text_14">
      <!-- 1400 -->
      <g transform="translate(26.564125 148.605933) scale(0.14 -0.14)">
       <use xlink:href="#ArialMT-31"/>
       <use xlink:href="#ArialMT-34" x="55.615234"/>
       <use xlink:href="#ArialMT-30" x="111.230469"/>
       <use xlink:href="#ArialMT-30" x="166.845703"/>
      </g>
     </g>
    </g>
    <g id="ytick_9">
     <g id="line2d_27">
      <path d="M 61.205375 102.24053 
L 488.296284 102.24053 
" clip-path="url(#p415b737f50)" style="fill: none; stroke: #cbcbcb"/>
     </g>
     <g id="line2d_28"/>
     <g id="text_15">
      <!-- 1600 -->
      <g transform="translate(26.564125 107.250999) scale(0.14 -0.14)">
       <use xlink:href="#ArialMT-31"/>
       <use xlink:href="#ArialMT-36" x="55.615234"/>
       <use xlink:href="#ArialMT-30" x="111.230469"/>
       <use xlink:href="#ArialMT-30" x="166.845703"/>
      </g>
     </g>
    </g>
    <g id="text_16">
     <!-- Count -->
     <g transform="translate(19.225125 287.013562) rotate(-90) scale(0.168 -0.168)">
      <defs>
       <path id="ArialMT-43" d="M 3763 1606 
L 4369 1453 
Q 4178 706 3683 314 
Q 3188 -78 2472 -78 
Q 1731 -78 1267 223 
Q 803 525 561 1097 
Q 319 1669 319 2325 
Q 319 3041 592 3573 
Q 866 4106 1370 4382 
Q 1875 4659 2481 4659 
Q 3169 4659 3637 4309 
Q 4106 3959 4291 3325 
L 3694 3184 
Q 3534 3684 3231 3912 
Q 2928 4141 2469 4141 
Q 1941 4141 1586 3887 
Q 1231 3634 1087 3207 
Q 944 2781 944 2328 
Q 944 1744 1114 1308 
Q 1284 872 1643 656 
Q 2003 441 2422 441 
Q 2931 441 3284 734 
Q 3638 1028 3763 1606 
z
" transform="scale(0.015625)"/>
       <path id="ArialMT-6e" d="M 422 0 
L 422 3319 
L 928 3319 
L 928 2847 
Q 1294 3394 1984 3394 
Q 2284 3394 2536 3286 
Q 2788 3178 2913 3003 
Q 3038 2828 3088 2588 
Q 3119 2431 3119 2041 
L 3119 0 
L 2556 0 
L 2556 2019 
Q 2556 2363 2490 2533 
Q 2425 2703 2258 2804 
Q 2091 2906 1866 2906 
Q 1506 2906 1245 2678 
Q 984 2450 984 1813 
L 984 0 
L 422 0 
z
" transform="scale(0.015625)"/>
       <path id="ArialMT-74" d="M 1650 503 
L 1731 6 
Q 1494 -44 1306 -44 
Q 1000 -44 831 53 
Q 663 150 594 308 
Q 525 466 525 972 
L 525 2881 
L 113 2881 
L 113 3319 
L 525 3319 
L 525 4141 
L 1084 4478 
L 1084 3319 
L 1650 3319 
L 1650 2881 
L 1084 2881 
L 1084 941 
Q 1084 700 1114 631 
Q 1144 563 1211 522 
Q 1278 481 1403 481 
Q 1497 481 1650 503 
z
" transform="scale(0.015625)"/>
      </defs>
      <use xlink:href="#ArialMT-43"/>
      <use xlink:href="#ArialMT-6f" x="72.216797"/>
      <use xlink:href="#ArialMT-75" x="127.832031"/>
      <use xlink:href="#ArialMT-6e" x="183.447266"/>
      <use xlink:href="#ArialMT-74" x="239.0625"/>
     </g>
    </g>
   </g>
   <g id="patch_3">
    <path d="M 80.618598 433.08 
L 97.499662 433.08 
L 97.499662 378.698262 
L 80.618598 378.698262 
z
" clip-path="url(#p415b737f50)" style="fill: #3ba3ec; fill-opacity: 0.75; stroke: #f0f0f0; stroke-width: 0.5; stroke-linejoin: miter"/>
   </g>
   <g id="patch_4">
    <path d="M 97.499662 433.08 
L 114.380725 433.08 
L 114.380725 399.168954 
L 97.499662 399.168954 
z
" clip-path="url(#p415b737f50)" style="fill: #3ba3ec; fill-opacity: 0.75; stroke: #f0f0f0; stroke-width: 0.5; stroke-linejoin: miter"/>
   </g>
   <g id="patch_5">
    <path d="M 114.380725 433.08 
L 131.261789 433.08 
L 131.261789 383.45408 
L 114.380725 383.45408 
z
" clip-path="url(#p415b737f50)" style="fill: #3ba3ec; fill-opacity: 0.75; stroke: #f0f0f0; stroke-width: 0.5; stroke-linejoin: miter"/>
   </g>
   <g id="patch_6">
    <path d="M 131.261789 433.08 
L 148.142853 433.08 
L 148.142853 386.5557 
L 131.261789 386.5557 
z
" clip-path="url(#p415b737f50)" style="fill: #3ba3ec; fill-opacity: 0.75; stroke: #f0f0f0; stroke-width: 0.5; stroke-linejoin: miter"/>
   </g>
   <g id="patch_7">
    <path d="M 148.142853 433.08 
L 165.023916 433.08 
L 165.023916 420.466745 
L 148.142853 420.466745 
z
" clip-path="url(#p415b737f50)" style="fill: #3ba3ec; fill-opacity: 0.75; stroke: #f0f0f0; stroke-width: 0.5; stroke-linejoin: miter"/>
   </g>
   <g id="patch_8">
    <path d="M 165.023916 433.08 
L 181.90498 433.08 
L 181.90498 427.497084 
L 165.023916 427.497084 
z
" clip-path="url(#p415b737f50)" style="fill: #3ba3ec; fill-opacity: 0.75; stroke: #f0f0f0; stroke-width: 0.5; stroke-linejoin: miter"/>
   </g>
   <g id="patch_9">
    <path d="M 181.90498 433.08 
L 198.786043 433.08 
L 198.786043 423.77514 
L 181.90498 423.77514 
z
" clip-path="url(#p415b737f50)" style="fill: #3ba3ec; fill-opacity: 0.75; stroke: #f0f0f0; stroke-width: 0.5; stroke-linejoin: miter"/>
   </g>
   <g id="patch_10">
    <path d="M 198.786043 433.08 
L 215.667107 433.08 
L 215.667107 406.819617 
L 198.786043 406.819617 
z
" clip-path="url(#p415b737f50)" style="fill: #3ba3ec; fill-opacity: 0.75; stroke: #f0f0f0; stroke-width: 0.5; stroke-linejoin: miter"/>
   </g>
   <g id="patch_11">
    <path d="M 215.667107 433.08 
L 232.548171 433.08 
L 232.548171 359.674993 
L 215.667107 359.674993 
z
" clip-path="url(#p415b737f50)" style="fill: #3ba3ec; fill-opacity: 0.75; stroke: #f0f0f0; stroke-width: 0.5; stroke-linejoin: miter"/>
   </g>
   <g id="patch_12">
    <path d="M 232.548171 433.08 
L 249.429234 433.08 
L 249.429234 410.748336 
L 232.548171 410.748336 
z
" clip-path="url(#p415b737f50)" style="fill: #3ba3ec; fill-opacity: 0.75; stroke: #f0f0f0; stroke-width: 0.5; stroke-linejoin: miter"/>
   </g>
   <g id="patch_13">
    <path d="M 249.429234 433.08 
L 266.310298 433.08 
L 266.310298 424.809013 
L 249.429234 424.809013 
z
" clip-path="url(#p415b737f50)" style="fill: #3ba3ec; fill-opacity: 0.75; stroke: #f0f0f0; stroke-width: 0.5; stroke-linejoin: miter"/>
   </g>
   <g id="patch_14">
    <path d="M 266.310298 433.08 
L 283.191361 433.08 
L 283.191361 427.497084 
L 266.310298 427.497084 
z
" clip-path="url(#p415b737f50)" style="fill: #3ba3ec; fill-opacity: 0.75; stroke: #f0f0f0; stroke-width: 0.5; stroke-linejoin: miter"/>
   </g>
   <g id="patch_15">
    <path d="M 283.191361 433.08 
L 300.072425 433.08 
L 300.072425 422.534492 
L 283.191361 422.534492 
z
" clip-path="url(#p415b737f50)" style="fill: #3ba3ec; fill-opacity: 0.75; stroke: #f0f0f0; stroke-width: 0.5; stroke-linejoin: miter"/>
   </g>
   <g id="patch_16">
    <path d="M 300.072425 433.08 
L 316.953489 433.08 
L 316.953489 412.816082 
L 300.072425 412.816082 
z
" clip-path="url(#p415b737f50)" style="fill: #3ba3ec; fill-opacity: 0.75; stroke: #f0f0f0; stroke-width: 0.5; stroke-linejoin: miter"/>
   </g>
   <g id="patch_17">
    <path d="M 316.953489 433.08 
L 333.834552 433.08 
L 333.834552 422.120943 
L 316.953489 422.120943 
z
" clip-path="url(#p415b737f50)" style="fill: #3ba3ec; fill-opacity: 0.75; stroke: #f0f0f0; stroke-width: 0.5; stroke-linejoin: miter"/>
   </g>
   <g id="patch_18">
    <path d="M 333.834552 433.08 
L 350.715616 433.08 
L 350.715616 407.439941 
L 333.834552 407.439941 
z
" clip-path="url(#p415b737f50)" style="fill: #3ba3ec; fill-opacity: 0.75; stroke: #f0f0f0; stroke-width: 0.5; stroke-linejoin: miter"/>
   </g>
   <g id="patch_19">
    <path d="M 350.715616 433.08 
L 367.596679 433.08 
L 367.596679 416.331252 
L 350.715616 416.331252 
z
" clip-path="url(#p415b737f50)" style="fill: #3ba3ec; fill-opacity: 0.75; stroke: #f0f0f0; stroke-width: 0.5; stroke-linejoin: miter"/>
   </g>
   <g id="patch_20">
    <path d="M 367.596679 433.08 
L 384.477743 433.08 
L 384.477743 402.684124 
L 367.596679 402.684124 
z
" clip-path="url(#p415b737f50)" style="fill: #3ba3ec; fill-opacity: 0.75; stroke: #f0f0f0; stroke-width: 0.5; stroke-linejoin: miter"/>
   </g>
   <g id="patch_21">
    <path d="M 384.477743 433.08 
L 401.358807 433.08 
L 401.358807 407.85349 
L 384.477743 407.85349 
z
" clip-path="url(#p415b737f50)" style="fill: #3ba3ec; fill-opacity: 0.75; stroke: #f0f0f0; stroke-width: 0.5; stroke-linejoin: miter"/>
   </g>
   <g id="patch_22">
    <path d="M 401.358807 433.08 
L 418.23987 433.08 
L 418.23987 415.710928 
L 401.358807 415.710928 
z
" clip-path="url(#p415b737f50)" style="fill: #3ba3ec; fill-opacity: 0.75; stroke: #f0f0f0; stroke-width: 0.5; stroke-linejoin: miter"/>
   </g>
   <g id="patch_23">
    <path d="M 418.23987 433.08 
L 435.120934 433.08 
L 435.120934 407.233166 
L 418.23987 407.233166 
z
" clip-path="url(#p415b737f50)" style="fill: #3ba3ec; fill-opacity: 0.75; stroke: #f0f0f0; stroke-width: 0.5; stroke-linejoin: miter"/>
   </g>
   <g id="patch_24">
    <path d="M 435.120934 433.08 
L 452.001997 433.08 
L 452.001997 371.874698 
L 435.120934 371.874698 
z
" clip-path="url(#p415b737f50)" style="fill: #3ba3ec; fill-opacity: 0.75; stroke: #f0f0f0; stroke-width: 0.5; stroke-linejoin: miter"/>
   </g>
   <g id="patch_25">
    <path d="M 452.001997 433.08 
L 468.883061 433.08 
L 468.883061 320.801355 
L 452.001997 320.801355 
z
" clip-path="url(#p415b737f50)" style="fill: #3ba3ec; fill-opacity: 0.75; stroke: #f0f0f0; stroke-width: 0.5; stroke-linejoin: miter"/>
   </g>
   <g id="patch_26">
    <path d="M 80.618598 378.698262 
L 97.499662 378.698262 
L 97.499662 317.079411 
L 80.618598 317.079411 
z
" clip-path="url(#p415b737f50)" style="fill: #50b131; fill-opacity: 0.75; stroke: #f0f0f0; stroke-width: 0.5; stroke-linejoin: miter"/>
   </g>
   <g id="patch_27">
    <path d="M 97.499662 399.168954 
L 114.380725 399.168954 
L 114.380725 353.885302 
L 97.499662 353.885302 
z
" clip-path="url(#p415b737f50)" style="fill: #50b131; fill-opacity: 0.75; stroke: #f0f0f0; stroke-width: 0.5; stroke-linejoin: miter"/>
   </g>
   <g id="patch_28">
    <path d="M 114.380725 383.45408 
L 131.261789 383.45408 
L 131.261789 334.448483 
L 114.380725 334.448483 
z
" clip-path="url(#p415b737f50)" style="fill: #50b131; fill-opacity: 0.75; stroke: #f0f0f0; stroke-width: 0.5; stroke-linejoin: miter"/>
   </g>
   <g id="patch_29">
    <path d="M 131.261789 386.5557 
L 148.142853 386.5557 
L 148.142853 340.238174 
L 131.261789 340.238174 
z
" clip-path="url(#p415b737f50)" style="fill: #50b131; fill-opacity: 0.75; stroke: #f0f0f0; stroke-width: 0.5; stroke-linejoin: miter"/>
   </g>
   <g id="patch_30">
    <path d="M 148.142853 420.466745 
L 165.023916 420.466745 
L 165.023916 410.128012 
L 148.142853 410.128012 
z
" clip-path="url(#p415b737f50)" style="fill: #50b131; fill-opacity: 0.75; stroke: #f0f0f0; stroke-width: 0.5; stroke-linejoin: miter"/>
   </g>
   <g id="patch_31">
    <path d="M 165.023916 427.497084 
L 181.90498 427.497084 
L 181.90498 424.395464 
L 165.023916 424.395464 
z
" clip-path="url(#p415b737f50)" style="fill: #50b131; fill-opacity: 0.75; stroke: #f0f0f0; stroke-width: 0.5; stroke-linejoin: miter"/>
   </g>
   <g id="patch_32">
    <path d="M 181.90498 423.77514 
L 198.786043 423.77514 
L 198.786043 409.921237 
L 181.90498 409.921237 
z
" clip-path="url(#p415b737f50)" style="fill: #50b131; fill-opacity: 0.75; stroke: #f0f0f0; stroke-width: 0.5; stroke-linejoin: miter"/>
   </g>
   <g id="patch_33">
    <path d="M 198.786043 406.819617 
L 215.667107 406.819617 
L 215.667107 372.908571 
L 198.786043 372.908571 
z
" clip-path="url(#p415b737f50)" style="fill: #50b131; fill-opacity: 0.75; stroke: #f0f0f0; stroke-width: 0.5; stroke-linejoin: miter"/>
   </g>
   <g id="patch_34">
    <path d="M 215.667107 359.674993 
L 232.548171 359.674993 
L 232.548171 274.277054 
L 215.667107 274.277054 
z
" clip-path="url(#p415b737f50)" style="fill: #50b131; fill-opacity: 0.75; stroke: #f0f0f0; stroke-width: 0.5; stroke-linejoin: miter"/>
   </g>
   <g id="patch_35">
    <path d="M 232.548171 410.748336 
L 249.429234 410.748336 
L 249.429234 380.145685 
L 232.548171 380.145685 
z
" clip-path="url(#p415b737f50)" style="fill: #50b131; fill-opacity: 0.75; stroke: #f0f0f0; stroke-width: 0.5; stroke-linejoin: miter"/>
   </g>
   <g id="patch_36">
    <path d="M 249.429234 424.809013 
L 266.310298 424.809013 
L 266.310298 414.263505 
L 249.429234 414.263505 
z
" clip-path="url(#p415b737f50)" style="fill: #50b131; fill-opacity: 0.75; stroke: #f0f0f0; stroke-width: 0.5; stroke-linejoin: miter"/>
   </g>
   <g id="patch_37">
    <path d="M 266.310298 427.497084 
L 283.191361 427.497084 
L 283.191361 416.124477 
L 266.310298 416.124477 
z
" clip-path="url(#p415b737f50)" style="fill: #50b131; fill-opacity: 0.75; stroke: #f0f0f0; stroke-width: 0.5; stroke-linejoin: miter"/>
   </g>
   <g id="patch_38">
    <path d="M 283.191361 422.534492 
L 300.072425 422.534492 
L 300.072425 400.616377 
L 283.191361 400.616377 
z
" clip-path="url(#p415b737f50)" style="fill: #50b131; fill-opacity: 0.75; stroke: #f0f0f0; stroke-width: 0.5; stroke-linejoin: miter"/>
   </g>
   <g id="patch_39">
    <path d="M 300.072425 412.816082 
L 316.953489 412.816082 
L 316.953489 382.213432 
L 300.072425 382.213432 
z
" clip-path="url(#p415b737f50)" style="fill: #50b131; fill-opacity: 0.75; stroke: #f0f0f0; stroke-width: 0.5; stroke-linejoin: miter"/>
   </g>
   <g id="patch_40">
    <path d="M 316.953489 422.120943 
L 333.834552 422.120943 
L 333.834552 400.202828 
L 316.953489 400.202828 
z
" clip-path="url(#p415b737f50)" style="fill: #50b131; fill-opacity: 0.75; stroke: #f0f0f0; stroke-width: 0.5; stroke-linejoin: miter"/>
   </g>
   <g id="patch_41">
    <path d="M 333.834552 407.439941 
L 350.715616 407.439941 
L 350.715616 371.874698 
L 333.834552 371.874698 
z
" clip-path="url(#p415b737f50)" style="fill: #50b131; fill-opacity: 0.75; stroke: #f0f0f0; stroke-width: 0.5; stroke-linejoin: miter"/>
   </g>
   <g id="patch_42">
    <path d="M 350.715616 416.331252 
L 367.596679 416.331252 
L 367.596679 386.762474 
L 350.715616 386.762474 
z
" clip-path="url(#p415b737f50)" style="fill: #50b131; fill-opacity: 0.75; stroke: #f0f0f0; stroke-width: 0.5; stroke-linejoin: miter"/>
   </g>
   <g id="patch_43">
    <path d="M 367.596679 402.684124 
L 384.477743 402.684124 
L 384.477743 355.746274 
L 367.596679 355.746274 
z
" clip-path="url(#p415b737f50)" style="fill: #50b131; fill-opacity: 0.75; stroke: #f0f0f0; stroke-width: 0.5; stroke-linejoin: miter"/>
   </g>
   <g id="patch_44">
    <path d="M 384.477743 407.85349 
L 401.358807 407.85349 
L 401.358807 375.183093 
L 384.477743 375.183093 
z
" clip-path="url(#p415b737f50)" style="fill: #50b131; fill-opacity: 0.75; stroke: #f0f0f0; stroke-width: 0.5; stroke-linejoin: miter"/>
   </g>
   <g id="patch_45">
    <path d="M 401.358807 415.710928 
L 418.23987 415.710928 
L 418.23987 392.34539 
L 401.358807 392.34539 
z
" clip-path="url(#p415b737f50)" style="fill: #50b131; fill-opacity: 0.75; stroke: #f0f0f0; stroke-width: 0.5; stroke-linejoin: miter"/>
   </g>
   <g id="patch_46">
    <path d="M 418.23987 407.233166 
L 435.120934 407.233166 
L 435.120934 359.674993 
L 418.23987 359.674993 
z
" clip-path="url(#p415b737f50)" style="fill: #50b131; fill-opacity: 0.75; stroke: #f0f0f0; stroke-width: 0.5; stroke-linejoin: miter"/>
   </g>
   <g id="patch_47">
    <path d="M 435.120934 371.874698 
L 452.001997 371.874698 
L 452.001997 279.239647 
L 435.120934 279.239647 
z
" clip-path="url(#p415b737f50)" style="fill: #50b131; fill-opacity: 0.75; stroke: #f0f0f0; stroke-width: 0.5; stroke-linejoin: miter"/>
   </g>
   <g id="patch_48">
    <path d="M 452.001997 320.801355 
L 468.883061 320.801355 
L 468.883061 175.231988 
L 452.001997 175.231988 
z
" clip-path="url(#p415b737f50)" style="fill: #50b131; fill-opacity: 0.75; stroke: #f0f0f0; stroke-width: 0.5; stroke-linejoin: miter"/>
   </g>
   <g id="patch_49">
    <path d="M 80.618598 317.079411 
L 97.499662 317.079411 
L 97.499662 292.266451 
L 80.618598 292.266451 
z
" clip-path="url(#p415b737f50)" style="fill: #f77189; fill-opacity: 0.75; stroke: #f0f0f0; stroke-width: 0.5; stroke-linejoin: miter"/>
   </g>
   <g id="patch_50">
    <path d="M 97.499662 353.885302 
L 114.380725 353.885302 
L 114.380725 335.689131 
L 97.499662 335.689131 
z
" clip-path="url(#p415b737f50)" style="fill: #f77189; fill-opacity: 0.75; stroke: #f0f0f0; stroke-width: 0.5; stroke-linejoin: miter"/>
   </g>
   <g id="patch_51">
    <path d="M 114.380725 334.448483 
L 131.261789 334.448483 
L 131.261789 318.320059 
L 114.380725 318.320059 
z
" clip-path="url(#p415b737f50)" style="fill: #f77189; fill-opacity: 0.75; stroke: #f0f0f0; stroke-width: 0.5; stroke-linejoin: miter"/>
   </g>
   <g id="patch_52">
    <path d="M 131.261789 340.238174 
L 148.142853 340.238174 
L 148.142853 327.004595 
L 131.261789 327.004595 
z
" clip-path="url(#p415b737f50)" style="fill: #f77189; fill-opacity: 0.75; stroke: #f0f0f0; stroke-width: 0.5; stroke-linejoin: miter"/>
   </g>
   <g id="patch_53">
    <path d="M 148.142853 410.128012 
L 165.023916 410.128012 
L 165.023916 401.65025 
L 148.142853 401.65025 
z
" clip-path="url(#p415b737f50)" style="fill: #f77189; fill-opacity: 0.75; stroke: #f0f0f0; stroke-width: 0.5; stroke-linejoin: miter"/>
   </g>
   <g id="patch_54">
    <path d="M 165.023916 424.395464 
L 181.90498 424.395464 
L 181.90498 419.226097 
L 165.023916 419.226097 
z
" clip-path="url(#p415b737f50)" style="fill: #f77189; fill-opacity: 0.75; stroke: #f0f0f0; stroke-width: 0.5; stroke-linejoin: miter"/>
   </g>
   <g id="patch_55">
    <path d="M 181.90498 409.921237 
L 198.786043 409.921237 
L 198.786043 400.202828 
L 181.90498 400.202828 
z
" clip-path="url(#p415b737f50)" style="fill: #f77189; fill-opacity: 0.75; stroke: #f0f0f0; stroke-width: 0.5; stroke-linejoin: miter"/>
   </g>
   <g id="patch_56">
    <path d="M 198.786043 372.908571 
L 215.667107 372.908571 
L 215.667107 340.651723 
L 198.786043 340.651723 
z
" clip-path="url(#p415b737f50)" style="fill: #f77189; fill-opacity: 0.75; stroke: #f0f0f0; stroke-width: 0.5; stroke-linejoin: miter"/>
   </g>
   <g id="patch_57">
    <path d="M 215.667107 274.277054 
L 232.548171 274.277054 
L 232.548171 209.349809 
L 215.667107 209.349809 
z
" clip-path="url(#p415b737f50)" style="fill: #f77189; fill-opacity: 0.75; stroke: #f0f0f0; stroke-width: 0.5; stroke-linejoin: miter"/>
   </g>
   <g id="patch_58">
    <path d="M 232.548171 380.145685 
L 249.429234 380.145685 
L 249.429234 347.888837 
L 232.548171 347.888837 
z
" clip-path="url(#p415b737f50)" style="fill: #f77189; fill-opacity: 0.75; stroke: #f0f0f0; stroke-width: 0.5; stroke-linejoin: miter"/>
   </g>
   <g id="patch_59">
    <path d="M 249.429234 414.263505 
L 266.310298 414.263505 
L 266.310298 397.928306 
L 249.429234 397.928306 
z
" clip-path="url(#p415b737f50)" style="fill: #f77189; fill-opacity: 0.75; stroke: #f0f0f0; stroke-width: 0.5; stroke-linejoin: miter"/>
   </g>
   <g id="patch_60">
    <path d="M 266.310298 416.124477 
L 283.191361 416.124477 
L 283.191361 393.172489 
L 266.310298 393.172489 
z
" clip-path="url(#p415b737f50)" style="fill: #f77189; fill-opacity: 0.75; stroke: #f0f0f0; stroke-width: 0.5; stroke-linejoin: miter"/>
   </g>
   <g id="patch_61">
    <path d="M 283.191361 400.616377 
L 300.072425 400.616377 
L 300.072425 380.145685 
L 283.191361 380.145685 
z
" clip-path="url(#p415b737f50)" style="fill: #f77189; fill-opacity: 0.75; stroke: #f0f0f0; stroke-width: 0.5; stroke-linejoin: miter"/>
   </g>
   <g id="patch_62">
    <path d="M 300.072425 382.213432 
L 316.953489 382.213432 
L 316.953489 357.400471 
L 300.072425 357.400471 
z
" clip-path="url(#p415b737f50)" style="fill: #f77189; fill-opacity: 0.75; stroke: #f0f0f0; stroke-width: 0.5; stroke-linejoin: miter"/>
   </g>
   <g id="patch_63">
    <path d="M 316.953489 400.202828 
L 333.834552 400.202828 
L 333.834552 380.145685 
L 316.953489 380.145685 
z
" clip-path="url(#p415b737f50)" style="fill: #f77189; fill-opacity: 0.75; stroke: #f0f0f0; stroke-width: 0.5; stroke-linejoin: miter"/>
   </g>
   <g id="patch_64">
    <path d="M 333.834552 371.874698 
L 350.715616 371.874698 
L 350.715616 342.30592 
L 333.834552 342.30592 
z
" clip-path="url(#p415b737f50)" style="fill: #f77189; fill-opacity: 0.75; stroke: #f0f0f0; stroke-width: 0.5; stroke-linejoin: miter"/>
   </g>
   <g id="patch_65">
    <path d="M 350.715616 386.762474 
L 367.596679 386.762474 
L 367.596679 359.674993 
L 350.715616 359.674993 
z
" clip-path="url(#p415b737f50)" style="fill: #f77189; fill-opacity: 0.75; stroke: #f0f0f0; stroke-width: 0.5; stroke-linejoin: miter"/>
   </g>
   <g id="patch_66">
    <path d="M 367.596679 355.746274 
L 384.477743 355.746274 
L 384.477743 321.214904 
L 367.596679 321.214904 
z
" clip-path="url(#p415b737f50)" style="fill: #f77189; fill-opacity: 0.75; stroke: #f0f0f0; stroke-width: 0.5; stroke-linejoin: miter"/>
   </g>
   <g id="patch_67">
    <path d="M 384.477743 375.183093 
L 401.358807 375.183093 
L 401.358807 347.475287 
L 384.477743 347.475287 
z
" clip-path="url(#p415b737f50)" style="fill: #f77189; fill-opacity: 0.75; stroke: #f0f0f0; stroke-width: 0.5; stroke-linejoin: miter"/>
   </g>
   <g id="patch_68">
    <path d="M 401.358807 392.34539 
L 418.23987 392.34539 
L 418.23987 367.53243 
L 401.358807 367.53243 
z
" clip-path="url(#p415b737f50)" style="fill: #f77189; fill-opacity: 0.75; stroke: #f0f0f0; stroke-width: 0.5; stroke-linejoin: miter"/>
   </g>
   <g id="patch_69">
    <path d="M 418.23987 359.674993 
L 435.120934 359.674993 
L 435.120934 336.10268 
L 418.23987 336.10268 
z
" clip-path="url(#p415b737f50)" style="fill: #f77189; fill-opacity: 0.75; stroke: #f0f0f0; stroke-width: 0.5; stroke-linejoin: miter"/>
   </g>
   <g id="patch_70">
    <path d="M 435.120934 279.239647 
L 452.001997 279.239647 
L 452.001997 258.14863 
L 435.120934 258.14863 
z
" clip-path="url(#p415b737f50)" style="fill: #f77189; fill-opacity: 0.75; stroke: #f0f0f0; stroke-width: 0.5; stroke-linejoin: miter"/>
   </g>
   <g id="patch_71">
    <path d="M 452.001997 175.231988 
L 468.883061 175.231988 
L 468.883061 112.165714 
L 452.001997 112.165714 
z
" clip-path="url(#p415b737f50)" style="fill: #f77189; fill-opacity: 0.75; stroke: #f0f0f0; stroke-width: 0.5; stroke-linejoin: miter"/>
   </g>
   <g id="patch_72">
    <path d="M 61.205375 433.08 
L 61.205375 96.12 
" style="fill: none; stroke: #f0f0f0; stroke-width: 3; stroke-linejoin: miter; stroke-linecap: square"/>
   </g>
   <g id="patch_73">
    <path d="M 488.296284 433.08 
L 488.296284 96.12 
" style="fill: none; stroke: #f0f0f0; stroke-width: 3; stroke-linejoin: miter; stroke-linecap: square"/>
   </g>
   <g id="patch_74">
    <path d="M 61.205375 433.08 
L 488.296284 433.08 
" style="fill: none; stroke: #f0f0f0; stroke-width: 3; stroke-linejoin: miter; stroke-linecap: square"/>
   </g>
   <g id="patch_75">
    <path d="M 61.205375 96.12 
L 488.296284 96.12 
" style="fill: none; stroke: #f0f0f0; stroke-width: 3; stroke-linejoin: miter; stroke-linecap: square"/>
   </g>
   <g id="text_17">
    <!-- Stacked histogram -->
    <g transform="translate(191.27583 90.12) scale(0.2016 -0.2016)">
     <defs>
      <path id="ArialMT-53" d="M 288 1472 
L 859 1522 
Q 900 1178 1048 958 
Q 1197 738 1509 602 
Q 1822 466 2213 466 
Q 2559 466 2825 569 
Q 3091 672 3220 851 
Q 3350 1031 3350 1244 
Q 3350 1459 3225 1620 
Q 3100 1781 2813 1891 
Q 2628 1963 1997 2114 
Q 1366 2266 1113 2400 
Q 784 2572 623 2826 
Q 463 3081 463 3397 
Q 463 3744 659 4045 
Q 856 4347 1234 4503 
Q 1613 4659 2075 4659 
Q 2584 4659 2973 4495 
Q 3363 4331 3572 4012 
Q 3781 3694 3797 3291 
L 3216 3247 
Q 3169 3681 2898 3903 
Q 2628 4125 2100 4125 
Q 1550 4125 1298 3923 
Q 1047 3722 1047 3438 
Q 1047 3191 1225 3031 
Q 1400 2872 2139 2705 
Q 2878 2538 3153 2413 
Q 3553 2228 3743 1945 
Q 3934 1663 3934 1294 
Q 3934 928 3725 604 
Q 3516 281 3123 101 
Q 2731 -78 2241 -78 
Q 1619 -78 1198 103 
Q 778 284 539 648 
Q 300 1013 288 1472 
z
" transform="scale(0.015625)"/>
      <path id="ArialMT-61" d="M 2588 409 
Q 2275 144 1986 34 
Q 1697 -75 1366 -75 
Q 819 -75 525 192 
Q 231 459 231 875 
Q 231 1119 342 1320 
Q 453 1522 633 1644 
Q 813 1766 1038 1828 
Q 1203 1872 1538 1913 
Q 2219 1994 2541 2106 
Q 2544 2222 2544 2253 
Q 2544 2597 2384 2738 
Q 2169 2928 1744 2928 
Q 1347 2928 1158 2789 
Q 969 2650 878 2297 
L 328 2372 
Q 403 2725 575 2942 
Q 747 3159 1072 3276 
Q 1397 3394 1825 3394 
Q 2250 3394 2515 3294 
Q 2781 3194 2906 3042 
Q 3031 2891 3081 2659 
Q 3109 2516 3109 2141 
L 3109 1391 
Q 3109 606 3145 398 
Q 3181 191 3288 0 
L 2700 0 
Q 2613 175 2588 409 
z
M 2541 1666 
Q 2234 1541 1622 1453 
Q 1275 1403 1131 1340 
Q 988 1278 909 1158 
Q 831 1038 831 891 
Q 831 666 1001 516 
Q 1172 366 1500 366 
Q 1825 366 2078 508 
Q 2331 650 2450 897 
Q 2541 1088 2541 1459 
L 2541 1666 
z
" transform="scale(0.015625)"/>
      <path id="ArialMT-63" d="M 2588 1216 
L 3141 1144 
Q 3050 572 2676 248 
Q 2303 -75 1759 -75 
Q 1078 -75 664 370 
Q 250 816 250 1647 
Q 250 2184 428 2587 
Q 606 2991 970 3192 
Q 1334 3394 1763 3394 
Q 2303 3394 2647 3120 
Q 2991 2847 3088 2344 
L 2541 2259 
Q 2463 2594 2264 2762 
Q 2066 2931 1784 2931 
Q 1359 2931 1093 2626 
Q 828 2322 828 1663 
Q 828 994 1084 691 
Q 1341 388 1753 388 
Q 2084 388 2306 591 
Q 2528 794 2588 1216 
z
" transform="scale(0.015625)"/>
      <path id="ArialMT-6b" d="M 425 0 
L 425 4581 
L 988 4581 
L 988 1969 
L 2319 3319 
L 3047 3319 
L 1778 2088 
L 3175 0 
L 2481 0 
L 1384 1697 
L 988 1316 
L 988 0 
L 425 0 
z
" transform="scale(0.015625)"/>
      <path id="ArialMT-69" d="M 425 3934 
L 425 4581 
L 988 4581 
L 988 3934 
L 425 3934 
z
M 425 0 
L 425 3319 
L 988 3319 
L 988 0 
L 425 0 
z
" transform="scale(0.015625)"/>
      <path id="ArialMT-73" d="M 197 991 
L 753 1078 
Q 800 744 1014 566 
Q 1228 388 1613 388 
Q 2000 388 2187 545 
Q 2375 703 2375 916 
Q 2375 1106 2209 1216 
Q 2094 1291 1634 1406 
Q 1016 1563 777 1677 
Q 538 1791 414 1992 
Q 291 2194 291 2438 
Q 291 2659 392 2848 
Q 494 3038 669 3163 
Q 800 3259 1026 3326 
Q 1253 3394 1513 3394 
Q 1903 3394 2198 3281 
Q 2494 3169 2634 2976 
Q 2775 2784 2828 2463 
L 2278 2388 
Q 2241 2644 2061 2787 
Q 1881 2931 1553 2931 
Q 1166 2931 1000 2803 
Q 834 2675 834 2503 
Q 834 2394 903 2306 
Q 972 2216 1119 2156 
Q 1203 2125 1616 2013 
Q 2213 1853 2448 1751 
Q 2684 1650 2818 1456 
Q 2953 1263 2953 975 
Q 2953 694 2789 445 
Q 2625 197 2315 61 
Q 2006 -75 1616 -75 
Q 969 -75 630 194 
Q 291 463 197 991 
z
" transform="scale(0.015625)"/>
      <path id="ArialMT-67" d="M 319 -275 
L 866 -356 
Q 900 -609 1056 -725 
Q 1266 -881 1628 -881 
Q 2019 -881 2231 -725 
Q 2444 -569 2519 -288 
Q 2563 -116 2559 434 
Q 2191 0 1641 0 
Q 956 0 581 494 
Q 206 988 206 1678 
Q 206 2153 378 2554 
Q 550 2956 876 3175 
Q 1203 3394 1644 3394 
Q 2231 3394 2613 2919 
L 2613 3319 
L 3131 3319 
L 3131 450 
Q 3131 -325 2973 -648 
Q 2816 -972 2473 -1159 
Q 2131 -1347 1631 -1347 
Q 1038 -1347 672 -1080 
Q 306 -813 319 -275 
z
M 784 1719 
Q 784 1066 1043 766 
Q 1303 466 1694 466 
Q 2081 466 2343 764 
Q 2606 1063 2606 1700 
Q 2606 2309 2336 2618 
Q 2066 2928 1684 2928 
Q 1309 2928 1046 2623 
Q 784 2319 784 1719 
z
" transform="scale(0.015625)"/>
      <path id="ArialMT-6d" d="M 422 0 
L 422 3319 
L 925 3319 
L 925 2853 
Q 1081 3097 1340 3245 
Q 1600 3394 1931 3394 
Q 2300 3394 2536 3241 
Q 2772 3088 2869 2813 
Q 3263 3394 3894 3394 
Q 4388 3394 4653 3120 
Q 4919 2847 4919 2278 
L 4919 0 
L 4359 0 
L 4359 2091 
Q 4359 2428 4304 2576 
Q 4250 2725 4106 2815 
Q 3963 2906 3769 2906 
Q 3419 2906 3187 2673 
Q 2956 2441 2956 1928 
L 2956 0 
L 2394 0 
L 2394 2156 
Q 2394 2531 2256 2718 
Q 2119 2906 1806 2906 
Q 1569 2906 1367 2781 
Q 1166 2656 1075 2415 
Q 984 2175 984 1722 
L 984 0 
L 422 0 
z
" transform="scale(0.015625)"/>
     </defs>
     <use xlink:href="#ArialMT-53"/>
     <use xlink:href="#ArialMT-74" x="66.699219"/>
     <use xlink:href="#ArialMT-61" x="94.482422"/>
     <use xlink:href="#ArialMT-63" x="150.097656"/>
     <use xlink:href="#ArialMT-6b" x="200.097656"/>
     <use xlink:href="#ArialMT-65" x="250.097656"/>
     <use xlink:href="#ArialMT-64" x="305.712891"/>
     <use xlink:href="#ArialMT-20" x="361.328125"/>
     <use xlink:href="#ArialMT-68" x="389.111328"/>
     <use xlink:href="#ArialMT-69" x="444.726562"/>
     <use xlink:href="#ArialMT-73" x="466.943359"/>
     <use xlink:href="#ArialMT-74" x="516.943359"/>
     <use xlink:href="#ArialMT-6f" x="544.726562"/>
     <use xlink:href="#ArialMT-67" x="600.341797"/>
     <use xlink:href="#ArialMT-72" x="655.957031"/>
     <use xlink:href="#ArialMT-61" x="689.257812"/>
     <use xlink:href="#ArialMT-6d" x="744.873047"/>
    </g>
   </g>
  </g>
  <g id="axes_2">
   <g id="patch_76">
    <path d="M 573.714466 433.08 
L 1000.805375 433.08 
L 1000.805375 96.12 
L 573.714466 96.12 
z
" style="fill: #f0f0f0"/>
   </g>
   <g id="matplotlib.axis_3">
    <g id="xtick_6">
     <g id="line2d_29">
      <path d="M 573.714466 433.08 
L 573.714466 96.12 
" clip-path="url(#p51d13013c0)" style="fill: none; stroke: #cbcbcb"/>
     </g>
     <g id="line2d_30"/>
     <g id="text_18">
      <!-- 0 -->
      <g transform="translate(569.82181 446.600937) scale(0.14 -0.14)">
       <use xlink:href="#ArialMT-30"/>
      </g>
     </g>
    </g>
    <g id="xtick_7">
     <g id="line2d_31">
      <path d="M 666.560316 433.08 
L 666.560316 96.12 
" clip-path="url(#p51d13013c0)" style="fill: none; stroke: #cbcbcb"/>
     </g>
     <g id="line2d_32"/>
     <g id="text_19">
      <!-- 5 -->
      <g transform="translate(662.667659 446.600937) scale(0.14 -0.14)">
       <use xlink:href="#ArialMT-35"/>
      </g>
     </g>
    </g>
    <g id="xtick_8">
     <g id="line2d_33">
      <path d="M 759.406166 433.08 
L 759.406166 96.12 
" clip-path="url(#p51d13013c0)" style="fill: none; stroke: #cbcbcb"/>
     </g>
     <g id="line2d_34"/>
     <g id="text_20">
      <!-- 10 -->
      <g transform="translate(751.620853 446.600937) scale(0.14 -0.14)">
       <use xlink:href="#ArialMT-31"/>
       <use xlink:href="#ArialMT-30" x="55.615234"/>
      </g>
     </g>
    </g>
    <g id="xtick_9">
     <g id="line2d_35">
      <path d="M 852.252015 433.08 
L 852.252015 96.12 
" clip-path="url(#p51d13013c0)" style="fill: none; stroke: #cbcbcb"/>
     </g>
     <g id="line2d_36"/>
     <g id="text_21">
      <!-- 15 -->
      <g transform="translate(844.466703 446.600937) scale(0.14 -0.14)">
       <use xlink:href="#ArialMT-31"/>
       <use xlink:href="#ArialMT-35" x="55.615234"/>
      </g>
     </g>
    </g>
    <g id="xtick_10">
     <g id="line2d_37">
      <path d="M 945.097865 433.08 
L 945.097865 96.12 
" clip-path="url(#p51d13013c0)" style="fill: none; stroke: #cbcbcb"/>
     </g>
     <g id="line2d_38"/>
     <g id="text_22">
      <!-- 20 -->
      <g transform="translate(937.312553 446.600937) scale(0.14 -0.14)">
       <use xlink:href="#ArialMT-32"/>
       <use xlink:href="#ArialMT-30" x="55.615234"/>
      </g>
     </g>
    </g>
    <g id="text_23">
     <!-- Order hour -->
     <g transform="translate(746.64592 465.408562) scale(0.168 -0.168)">
      <use xlink:href="#ArialMT-4f"/>
      <use xlink:href="#ArialMT-72" x="77.783203"/>
      <use xlink:href="#ArialMT-64" x="111.083984"/>
      <use xlink:href="#ArialMT-65" x="166.699219"/>
      <use xlink:href="#ArialMT-72" x="222.314453"/>
      <use xlink:href="#ArialMT-20" x="255.615234"/>
      <use xlink:href="#ArialMT-68" x="283.398438"/>
      <use xlink:href="#ArialMT-6f" x="339.013672"/>
      <use xlink:href="#ArialMT-75" x="394.628906"/>
      <use xlink:href="#ArialMT-72" x="450.244141"/>
     </g>
    </g>
   </g>
   <g id="matplotlib.axis_4">
    <g id="ytick_10">
     <g id="line2d_39">
      <path d="M 573.714466 433.08 
L 1000.805375 433.08 
" clip-path="url(#p51d13013c0)" style="fill: none; stroke: #cbcbcb"/>
     </g>
     <g id="line2d_40"/>
     <g id="text_24">
      <!-- 0.0 -->
      <g transform="translate(550.754466 438.090469) scale(0.14 -0.14)">
       <defs>
        <path id="ArialMT-2e" d="M 581 0 
L 581 641 
L 1222 641 
L 1222 0 
L 581 0 
z
" transform="scale(0.015625)"/>
       </defs>
       <use xlink:href="#ArialMT-30"/>
       <use xlink:href="#ArialMT-2e" x="55.615234"/>
       <use xlink:href="#ArialMT-30" x="83.398438"/>
      </g>
     </g>
    </g>
    <g id="ytick_11">
     <g id="line2d_41">
      <path d="M 573.714466 365.688 
L 1000.805375 365.688 
" clip-path="url(#p51d13013c0)" style="fill: none; stroke: #cbcbcb"/>
     </g>
     <g id="line2d_42"/>
     <g id="text_25">
      <!-- 0.2 -->
      <g transform="translate(550.754466 370.698469) scale(0.14 -0.14)">
       <use xlink:href="#ArialMT-30"/>
       <use xlink:href="#ArialMT-2e" x="55.615234"/>
       <use xlink:href="#ArialMT-32" x="83.398438"/>
      </g>
     </g>
    </g>
    <g id="ytick_12">
     <g id="line2d_43">
      <path d="M 573.714466 298.296 
L 1000.805375 298.296 
" clip-path="url(#p51d13013c0)" style="fill: none; stroke: #cbcbcb"/>
     </g>
     <g id="line2d_44"/>
     <g id="text_26">
      <!-- 0.4 -->
      <g transform="translate(550.754466 303.306469) scale(0.14 -0.14)">
       <use xlink:href="#ArialMT-30"/>
       <use xlink:href="#ArialMT-2e" x="55.615234"/>
       <use xlink:href="#ArialMT-34" x="83.398438"/>
      </g>
     </g>
    </g>
    <g id="ytick_13">
     <g id="line2d_45">
      <path d="M 573.714466 230.904 
L 1000.805375 230.904 
" clip-path="url(#p51d13013c0)" style="fill: none; stroke: #cbcbcb"/>
     </g>
     <g id="line2d_46"/>
     <g id="text_27">
      <!-- 0.6 -->
      <g transform="translate(550.754466 235.914469) scale(0.14 -0.14)">
       <use xlink:href="#ArialMT-30"/>
       <use xlink:href="#ArialMT-2e" x="55.615234"/>
       <use xlink:href="#ArialMT-36" x="83.398438"/>
      </g>
     </g>
    </g>
    <g id="ytick_14">
     <g id="line2d_47">
      <path d="M 573.714466 163.512 
L 1000.805375 163.512 
" clip-path="url(#p51d13013c0)" style="fill: none; stroke: #cbcbcb"/>
     </g>
     <g id="line2d_48"/>
     <g id="text_28">
      <!-- 0.8 -->
      <g transform="translate(550.754466 168.522469) scale(0.14 -0.14)">
       <use xlink:href="#ArialMT-30"/>
       <use xlink:href="#ArialMT-2e" x="55.615234"/>
       <use xlink:href="#ArialMT-38" x="83.398438"/>
      </g>
     </g>
    </g>
    <g id="ytick_15">
     <g id="line2d_49">
      <path d="M 573.714466 96.12 
L 1000.805375 96.12 
" clip-path="url(#p51d13013c0)" style="fill: none; stroke: #cbcbcb"/>
     </g>
     <g id="line2d_50"/>
     <g id="text_29">
      <!-- 1.0 -->
      <g transform="translate(550.754466 101.130469) scale(0.14 -0.14)">
       <use xlink:href="#ArialMT-31"/>
       <use xlink:href="#ArialMT-2e" x="55.615234"/>
       <use xlink:href="#ArialMT-30" x="83.398438"/>
      </g>
     </g>
    </g>
    <g id="text_30">
     <!-- Density -->
     <g transform="translate(543.218591 292.60875) rotate(-90) scale(0.168 -0.168)">
      <defs>
       <path id="ArialMT-44" d="M 494 0 
L 494 4581 
L 2072 4581 
Q 2606 4581 2888 4516 
Q 3281 4425 3559 4188 
Q 3922 3881 4101 3404 
Q 4281 2928 4281 2316 
Q 4281 1794 4159 1391 
Q 4038 988 3847 723 
Q 3656 459 3429 307 
Q 3203 156 2883 78 
Q 2563 0 2147 0 
L 494 0 
z
M 1100 541 
L 2078 541 
Q 2531 541 2789 625 
Q 3047 709 3200 863 
Q 3416 1078 3536 1442 
Q 3656 1806 3656 2325 
Q 3656 3044 3420 3430 
Q 3184 3816 2847 3947 
Q 2603 4041 2063 4041 
L 1100 4041 
L 1100 541 
z
" transform="scale(0.015625)"/>
       <path id="ArialMT-79" d="M 397 -1278 
L 334 -750 
Q 519 -800 656 -800 
Q 844 -800 956 -737 
Q 1069 -675 1141 -563 
Q 1194 -478 1313 -144 
Q 1328 -97 1363 -6 
L 103 3319 
L 709 3319 
L 1400 1397 
Q 1534 1031 1641 628 
Q 1738 1016 1872 1384 
L 2581 3319 
L 3144 3319 
L 1881 -56 
Q 1678 -603 1566 -809 
Q 1416 -1088 1222 -1217 
Q 1028 -1347 759 -1347 
Q 597 -1347 397 -1278 
z
" transform="scale(0.015625)"/>
      </defs>
      <use xlink:href="#ArialMT-44"/>
      <use xlink:href="#ArialMT-65" x="72.216797"/>
      <use xlink:href="#ArialMT-6e" x="127.832031"/>
      <use xlink:href="#ArialMT-73" x="183.447266"/>
      <use xlink:href="#ArialMT-69" x="233.447266"/>
      <use xlink:href="#ArialMT-74" x="255.664062"/>
      <use xlink:href="#ArialMT-79" x="283.447266"/>
     </g>
    </g>
   </g>
   <g id="patch_77">
    <path d="M 573.714466 433.08 
L 592.283636 433.08 
L 592.283636 302.947137 
L 573.714466 302.947137 
z
" clip-path="url(#p51d13013c0)" style="fill: #3ba3ec; fill-opacity: 0.75; stroke: #f0f0f0; stroke-width: 0.5; stroke-linejoin: miter"/>
   </g>
   <g id="patch_78">
    <path d="M 592.283636 433.08 
L 610.852806 433.08 
L 610.852806 315.752102 
L 592.283636 315.752102 
z
" clip-path="url(#p51d13013c0)" style="fill: #3ba3ec; fill-opacity: 0.75; stroke: #f0f0f0; stroke-width: 0.5; stroke-linejoin: miter"/>
   </g>
   <g id="patch_79">
    <path d="M 610.852806 433.08 
L 629.421976 433.08 
L 629.421976 287.367568 
L 610.852806 287.367568 
z
" clip-path="url(#p51d13013c0)" style="fill: #3ba3ec; fill-opacity: 0.75; stroke: #f0f0f0; stroke-width: 0.5; stroke-linejoin: miter"/>
   </g>
   <g id="patch_80">
    <path d="M 629.421976 433.08 
L 647.991146 433.08 
L 647.991146 285.290526 
L 629.421976 285.290526 
z
" clip-path="url(#p51d13013c0)" style="fill: #3ba3ec; fill-opacity: 0.75; stroke: #f0f0f0; stroke-width: 0.5; stroke-linejoin: miter"/>
   </g>
   <g id="patch_81">
    <path d="M 647.991146 433.08 
L 666.560316 433.08 
L 666.560316 297.852632 
L 647.991146 297.852632 
z
" clip-path="url(#p51d13013c0)" style="fill: #3ba3ec; fill-opacity: 0.75; stroke: #f0f0f0; stroke-width: 0.5; stroke-linejoin: miter"/>
   </g>
   <g id="patch_82">
    <path d="M 666.560316 433.08 
L 685.129486 433.08 
L 685.129486 297.290149 
L 666.560316 297.290149 
z
" clip-path="url(#p51d13013c0)" style="fill: #3ba3ec; fill-opacity: 0.75; stroke: #f0f0f0; stroke-width: 0.5; stroke-linejoin: miter"/>
   </g>
   <g id="patch_83">
    <path d="M 685.129486 433.08 
L 703.698656 433.08 
L 703.698656 337.713962 
L 685.129486 337.713962 
z
" clip-path="url(#p51d13013c0)" style="fill: #3ba3ec; fill-opacity: 0.75; stroke: #f0f0f0; stroke-width: 0.5; stroke-linejoin: miter"/>
   </g>
   <g id="patch_84">
    <path d="M 703.698656 433.08 
L 722.267826 433.08 
L 722.267826 337.344161 
L 703.698656 337.344161 
z
" clip-path="url(#p51d13013c0)" style="fill: #3ba3ec; fill-opacity: 0.75; stroke: #f0f0f0; stroke-width: 0.5; stroke-linejoin: miter"/>
   </g>
   <g id="patch_85">
    <path d="M 722.267826 433.08 
L 740.836996 433.08 
L 740.836996 322.524732 
L 722.267826 322.524732 
z
" clip-path="url(#p51d13013c0)" style="fill: #3ba3ec; fill-opacity: 0.75; stroke: #f0f0f0; stroke-width: 0.5; stroke-linejoin: miter"/>
   </g>
   <g id="patch_86">
    <path d="M 740.836996 433.08 
L 759.406166 433.08 
L 759.406166 344.75068 
L 740.836996 344.75068 
z
" clip-path="url(#p51d13013c0)" style="fill: #3ba3ec; fill-opacity: 0.75; stroke: #f0f0f0; stroke-width: 0.5; stroke-linejoin: miter"/>
   </g>
   <g id="patch_87">
    <path d="M 759.406166 433.08 
L 777.975335 433.08 
L 777.975335 353.795294 
L 759.406166 353.795294 
z
" clip-path="url(#p51d13013c0)" style="fill: #3ba3ec; fill-opacity: 0.75; stroke: #f0f0f0; stroke-width: 0.5; stroke-linejoin: miter"/>
   </g>
   <g id="patch_88">
    <path d="M 777.975335 433.08 
L 796.544505 433.08 
L 796.544505 385.940518 
L 777.975335 385.940518 
z
" clip-path="url(#p51d13013c0)" style="fill: #3ba3ec; fill-opacity: 0.75; stroke: #f0f0f0; stroke-width: 0.5; stroke-linejoin: miter"/>
   </g>
   <g id="patch_89">
    <path d="M 796.544505 433.08 
L 815.113675 433.08 
L 815.113675 365.95125 
L 796.544505 365.95125 
z
" clip-path="url(#p51d13013c0)" style="fill: #3ba3ec; fill-opacity: 0.75; stroke: #f0f0f0; stroke-width: 0.5; stroke-linejoin: miter"/>
   </g>
   <g id="patch_90">
    <path d="M 815.113675 433.08 
L 833.682845 433.08 
L 833.682845 342.855738 
L 815.113675 342.855738 
z
" clip-path="url(#p51d13013c0)" style="fill: #3ba3ec; fill-opacity: 0.75; stroke: #f0f0f0; stroke-width: 0.5; stroke-linejoin: miter"/>
   </g>
   <g id="patch_91">
    <path d="M 833.682845 433.08 
L 852.252015 433.08 
L 852.252015 363.31875 
L 833.682845 363.31875 
z
" clip-path="url(#p51d13013c0)" style="fill: #3ba3ec; fill-opacity: 0.75; stroke: #f0f0f0; stroke-width: 0.5; stroke-linejoin: miter"/>
   </g>
   <g id="patch_92">
    <path d="M 852.252015 433.08 
L 870.821185 433.08 
L 870.821185 337.902232 
L 852.252015 337.902232 
z
" clip-path="url(#p51d13013c0)" style="fill: #3ba3ec; fill-opacity: 0.75; stroke: #f0f0f0; stroke-width: 0.5; stroke-linejoin: miter"/>
   </g>
   <g id="patch_93">
    <path d="M 870.821185 433.08 
L 889.390355 433.08 
L 889.390355 356.196169 
L 870.821185 356.196169 
z
" clip-path="url(#p51d13013c0)" style="fill: #3ba3ec; fill-opacity: 0.75; stroke: #f0f0f0; stroke-width: 0.5; stroke-linejoin: miter"/>
   </g>
   <g id="patch_94">
    <path d="M 889.390355 433.08 
L 907.959525 433.08 
L 907.959525 341.521553 
L 889.390355 341.521553 
z
" clip-path="url(#p51d13013c0)" style="fill: #3ba3ec; fill-opacity: 0.75; stroke: #f0f0f0; stroke-width: 0.5; stroke-linejoin: miter"/>
   </g>
   <g id="patch_95">
    <path d="M 907.959525 433.08 
L 926.528695 433.08 
L 926.528695 333.782609 
L 907.959525 333.782609 
z
" clip-path="url(#p51d13013c0)" style="fill: #3ba3ec; fill-opacity: 0.75; stroke: #f0f0f0; stroke-width: 0.5; stroke-linejoin: miter"/>
   </g>
   <g id="patch_96">
    <path d="M 926.528695 433.08 
L 945.097865 433.08 
L 945.097865 343.790915 
L 926.528695 343.790915 
z
" clip-path="url(#p51d13013c0)" style="fill: #3ba3ec; fill-opacity: 0.75; stroke: #f0f0f0; stroke-width: 0.5; stroke-linejoin: miter"/>
   </g>
   <g id="patch_97">
    <path d="M 945.097865 433.08 
L 963.667035 433.08 
L 963.667035 343.271898 
L 945.097865 343.271898 
z
" clip-path="url(#p51d13013c0)" style="fill: #3ba3ec; fill-opacity: 0.75; stroke: #f0f0f0; stroke-width: 0.5; stroke-linejoin: miter"/>
   </g>
   <g id="patch_98">
    <path d="M 963.667035 433.08 
L 982.236205 433.08 
L 982.236205 315.18383 
L 963.667035 315.18383 
z
" clip-path="url(#p51d13013c0)" style="fill: #3ba3ec; fill-opacity: 0.75; stroke: #f0f0f0; stroke-width: 0.5; stroke-linejoin: miter"/>
   </g>
   <g id="patch_99">
    <path d="M 982.236205 433.08 
L 1000.805375 433.08 
L 1000.805375 315.187423 
L 982.236205 315.187423 
z
" clip-path="url(#p51d13013c0)" style="fill: #3ba3ec; fill-opacity: 0.75; stroke: #f0f0f0; stroke-width: 0.5; stroke-linejoin: miter"/>
   </g>
   <g id="patch_100">
    <path d="M 573.714466 302.947137 
L 592.283636 302.947137 
L 592.283636 155.496211 
L 573.714466 155.496211 
z
" clip-path="url(#p51d13013c0)" style="fill: #50b131; fill-opacity: 0.75; stroke: #f0f0f0; stroke-width: 0.5; stroke-linejoin: miter"/>
   </g>
   <g id="patch_101">
    <path d="M 592.283636 315.752102 
L 610.852806 315.752102 
L 610.852806 159.076433 
L 592.283636 159.076433 
z
" clip-path="url(#p51d13013c0)" style="fill: #50b131; fill-opacity: 0.75; stroke: #f0f0f0; stroke-width: 0.5; stroke-linejoin: miter"/>
   </g>
   <g id="patch_102">
    <path d="M 610.852806 287.367568 
L 629.421976 287.367568 
L 629.421976 143.476541 
L 610.852806 143.476541 
z
" clip-path="url(#p51d13013c0)" style="fill: #50b131; fill-opacity: 0.75; stroke: #f0f0f0; stroke-width: 0.5; stroke-linejoin: miter"/>
   </g>
   <g id="patch_103">
    <path d="M 629.421976 285.290526 
L 647.991146 285.290526 
L 647.991146 138.157895 
L 629.421976 138.157895 
z
" clip-path="url(#p51d13013c0)" style="fill: #50b131; fill-opacity: 0.75; stroke: #f0f0f0; stroke-width: 0.5; stroke-linejoin: miter"/>
   </g>
   <g id="patch_104">
    <path d="M 647.991146 297.852632 
L 666.560316 297.852632 
L 666.560316 187.010526 
L 647.991146 187.010526 
z
" clip-path="url(#p51d13013c0)" style="fill: #50b131; fill-opacity: 0.75; stroke: #f0f0f0; stroke-width: 0.5; stroke-linejoin: miter"/>
   </g>
   <g id="patch_105">
    <path d="M 666.560316 297.290149 
L 685.129486 297.290149 
L 685.129486 221.851343 
L 666.560316 221.851343 
z
" clip-path="url(#p51d13013c0)" style="fill: #50b131; fill-opacity: 0.75; stroke: #f0f0f0; stroke-width: 0.5; stroke-linejoin: miter"/>
   </g>
   <g id="patch_106">
    <path d="M 685.129486 337.713962 
L 703.698656 337.713962 
L 703.698656 195.724528 
L 685.129486 195.724528 
z
" clip-path="url(#p51d13013c0)" style="fill: #50b131; fill-opacity: 0.75; stroke: #f0f0f0; stroke-width: 0.5; stroke-linejoin: miter"/>
   </g>
   <g id="patch_107">
    <path d="M 703.698656 337.344161 
L 722.267826 337.344161 
L 722.267826 213.716779 
L 703.698656 213.716779 
z
" clip-path="url(#p51d13013c0)" style="fill: #50b131; fill-opacity: 0.75; stroke: #f0f0f0; stroke-width: 0.5; stroke-linejoin: miter"/>
   </g>
   <g id="patch_108">
    <path d="M 722.267826 322.524732 
L 740.836996 322.524732 
L 740.836996 193.906913 
L 722.267826 193.906913 
z
" clip-path="url(#p51d13013c0)" style="fill: #50b131; fill-opacity: 0.75; stroke: #f0f0f0; stroke-width: 0.5; stroke-linejoin: miter"/>
   </g>
   <g id="patch_109">
    <path d="M 740.836996 344.75068 
L 759.406166 344.75068 
L 759.406166 223.706796 
L 740.836996 223.706796 
z
" clip-path="url(#p51d13013c0)" style="fill: #50b131; fill-opacity: 0.75; stroke: #f0f0f0; stroke-width: 0.5; stroke-linejoin: miter"/>
   </g>
   <g id="patch_110">
    <path d="M 759.406166 353.795294 
L 777.975335 353.795294 
L 777.975335 252.707294 
L 759.406166 252.707294 
z
" clip-path="url(#p51d13013c0)" style="fill: #50b131; fill-opacity: 0.75; stroke: #f0f0f0; stroke-width: 0.5; stroke-linejoin: miter"/>
   </g>
   <g id="patch_111">
    <path d="M 777.975335 385.940518 
L 796.544505 385.940518 
L 796.544505 289.915648 
L 777.975335 289.915648 
z
" clip-path="url(#p51d13013c0)" style="fill: #50b131; fill-opacity: 0.75; stroke: #f0f0f0; stroke-width: 0.5; stroke-linejoin: miter"/>
   </g>
   <g id="patch_112">
    <path d="M 796.544505 365.95125 
L 815.113675 365.95125 
L 815.113675 226.42875 
L 796.544505 226.42875 
z
" clip-path="url(#p51d13013c0)" style="fill: #50b131; fill-opacity: 0.75; stroke: #f0f0f0; stroke-width: 0.5; stroke-linejoin: miter"/>
   </g>
   <g id="patch_113">
    <path d="M 815.113675 342.855738 
L 833.682845 342.855738 
L 833.682845 206.598689 
L 815.113675 206.598689 
z
" clip-path="url(#p51d13013c0)" style="fill: #50b131; fill-opacity: 0.75; stroke: #f0f0f0; stroke-width: 0.5; stroke-linejoin: miter"/>
   </g>
   <g id="patch_114">
    <path d="M 833.682845 363.31875 
L 852.252015 363.31875 
L 852.252015 223.79625 
L 833.682845 223.79625 
z
" clip-path="url(#p51d13013c0)" style="fill: #50b131; fill-opacity: 0.75; stroke: #f0f0f0; stroke-width: 0.5; stroke-linejoin: miter"/>
   </g>
   <g id="patch_115">
    <path d="M 852.252015 337.902232 
L 870.821185 337.902232 
L 870.821185 205.881458 
L 852.252015 205.881458 
z
" clip-path="url(#p51d13013c0)" style="fill: #50b131; fill-opacity: 0.75; stroke: #f0f0f0; stroke-width: 0.5; stroke-linejoin: miter"/>
   </g>
   <g id="patch_116">
    <path d="M 870.821185 356.196169 
L 889.390355 356.196169 
L 889.390355 220.462986 
L 870.821185 220.462986 
z
" clip-path="url(#p51d13013c0)" style="fill: #50b131; fill-opacity: 0.75; stroke: #f0f0f0; stroke-width: 0.5; stroke-linejoin: miter"/>
   </g>
   <g id="patch_117">
    <path d="M 889.390355 341.521553 
L 907.959525 341.521553 
L 907.959525 200.135379 
L 889.390355 200.135379 
z
" clip-path="url(#p51d13013c0)" style="fill: #50b131; fill-opacity: 0.75; stroke: #f0f0f0; stroke-width: 0.5; stroke-linejoin: miter"/>
   </g>
   <g id="patch_118">
    <path d="M 907.959525 333.782609 
L 926.528695 333.782609 
L 926.528695 205.184348 
L 907.959525 205.184348 
z
" clip-path="url(#p51d13013c0)" style="fill: #50b131; fill-opacity: 0.75; stroke: #f0f0f0; stroke-width: 0.5; stroke-linejoin: miter"/>
   </g>
   <g id="patch_119">
    <path d="M 926.528695 343.790915 
L 945.097865 343.790915 
L 945.097865 223.675836 
L 926.528695 223.675836 
z
" clip-path="url(#p51d13013c0)" style="fill: #50b131; fill-opacity: 0.75; stroke: #f0f0f0; stroke-width: 0.5; stroke-linejoin: miter"/>
   </g>
   <g id="patch_120">
    <path d="M 945.097865 343.271898 
L 963.667035 343.271898 
L 963.667035 178.024989 
L 945.097865 178.024989 
z
" clip-path="url(#p51d13013c0)" style="fill: #50b131; fill-opacity: 0.75; stroke: #f0f0f0; stroke-width: 0.5; stroke-linejoin: miter"/>
   </g>
   <g id="patch_121">
    <path d="M 963.667035 315.18383 
L 982.236205 315.18383 
L 982.236205 136.746383 
L 963.667035 136.746383 
z
" clip-path="url(#p51d13013c0)" style="fill: #50b131; fill-opacity: 0.75; stroke: #f0f0f0; stroke-width: 0.5; stroke-linejoin: miter"/>
   </g>
   <g id="patch_122">
    <path d="M 982.236205 315.187423 
L 1000.805375 315.187423 
L 1000.805375 162.339588 
L 982.236205 162.339588 
z
" clip-path="url(#p51d13013c0)" style="fill: #50b131; fill-opacity: 0.75; stroke: #f0f0f0; stroke-width: 0.5; stroke-linejoin: miter"/>
   </g>
   <g id="patch_123">
    <path d="M 573.714466 155.496211 
L 592.283636 155.496211 
L 592.283636 96.12 
L 573.714466 96.12 
z
" clip-path="url(#p51d13013c0)" style="fill: #f77189; fill-opacity: 0.75; stroke: #f0f0f0; stroke-width: 0.5; stroke-linejoin: miter"/>
   </g>
   <g id="patch_124">
    <path d="M 592.283636 159.076433 
L 610.852806 159.076433 
L 610.852806 96.12 
L 592.283636 96.12 
z
" clip-path="url(#p51d13013c0)" style="fill: #f77189; fill-opacity: 0.75; stroke: #f0f0f0; stroke-width: 0.5; stroke-linejoin: miter"/>
   </g>
   <g id="patch_125">
    <path d="M 610.852806 143.476541 
L 629.421976 143.476541 
L 629.421976 96.12 
L 610.852806 96.12 
z
" clip-path="url(#p51d13013c0)" style="fill: #f77189; fill-opacity: 0.75; stroke: #f0f0f0; stroke-width: 0.5; stroke-linejoin: miter"/>
   </g>
   <g id="patch_126">
    <path d="M 629.421976 138.157895 
L 647.991146 138.157895 
L 647.991146 96.12 
L 629.421976 96.12 
z
" clip-path="url(#p51d13013c0)" style="fill: #f77189; fill-opacity: 0.75; stroke: #f0f0f0; stroke-width: 0.5; stroke-linejoin: miter"/>
   </g>
   <g id="patch_127">
    <path d="M 647.991146 187.010526 
L 666.560316 187.010526 
L 666.560316 96.12 
L 647.991146 96.12 
z
" clip-path="url(#p51d13013c0)" style="fill: #f77189; fill-opacity: 0.75; stroke: #f0f0f0; stroke-width: 0.5; stroke-linejoin: miter"/>
   </g>
   <g id="patch_128">
    <path d="M 666.560316 221.851343 
L 685.129486 221.851343 
L 685.129486 96.12 
L 666.560316 96.12 
z
" clip-path="url(#p51d13013c0)" style="fill: #f77189; fill-opacity: 0.75; stroke: #f0f0f0; stroke-width: 0.5; stroke-linejoin: miter"/>
   </g>
   <g id="patch_129">
    <path d="M 685.129486 195.724528 
L 703.698656 195.724528 
L 703.698656 96.12 
L 685.129486 96.12 
z
" clip-path="url(#p51d13013c0)" style="fill: #f77189; fill-opacity: 0.75; stroke: #f0f0f0; stroke-width: 0.5; stroke-linejoin: miter"/>
   </g>
   <g id="patch_130">
    <path d="M 703.698656 213.716779 
L 722.267826 213.716779 
L 722.267826 96.12 
L 703.698656 96.12 
z
" clip-path="url(#p51d13013c0)" style="fill: #f77189; fill-opacity: 0.75; stroke: #f0f0f0; stroke-width: 0.5; stroke-linejoin: miter"/>
   </g>
   <g id="patch_131">
    <path d="M 722.267826 193.906913 
L 740.836996 193.906913 
L 740.836996 96.12 
L 722.267826 96.12 
z
" clip-path="url(#p51d13013c0)" style="fill: #f77189; fill-opacity: 0.75; stroke: #f0f0f0; stroke-width: 0.5; stroke-linejoin: miter"/>
   </g>
   <g id="patch_132">
    <path d="M 740.836996 223.706796 
L 759.406166 223.706796 
L 759.406166 96.12 
L 740.836996 96.12 
z
" clip-path="url(#p51d13013c0)" style="fill: #f77189; fill-opacity: 0.75; stroke: #f0f0f0; stroke-width: 0.5; stroke-linejoin: miter"/>
   </g>
   <g id="patch_133">
    <path d="M 759.406166 252.707294 
L 777.975335 252.707294 
L 777.975335 96.12 
L 759.406166 96.12 
z
" clip-path="url(#p51d13013c0)" style="fill: #f77189; fill-opacity: 0.75; stroke: #f0f0f0; stroke-width: 0.5; stroke-linejoin: miter"/>
   </g>
   <g id="patch_134">
    <path d="M 777.975335 289.915648 
L 796.544505 289.915648 
L 796.544505 96.12 
L 777.975335 96.12 
z
" clip-path="url(#p51d13013c0)" style="fill: #f77189; fill-opacity: 0.75; stroke: #f0f0f0; stroke-width: 0.5; stroke-linejoin: miter"/>
   </g>
   <g id="patch_135">
    <path d="M 796.544505 226.42875 
L 815.113675 226.42875 
L 815.113675 96.12 
L 796.544505 96.12 
z
" clip-path="url(#p51d13013c0)" style="fill: #f77189; fill-opacity: 0.75; stroke: #f0f0f0; stroke-width: 0.5; stroke-linejoin: miter"/>
   </g>
   <g id="patch_136">
    <path d="M 815.113675 206.598689 
L 833.682845 206.598689 
L 833.682845 96.12 
L 815.113675 96.12 
z
" clip-path="url(#p51d13013c0)" style="fill: #f77189; fill-opacity: 0.75; stroke: #f0f0f0; stroke-width: 0.5; stroke-linejoin: miter"/>
   </g>
   <g id="patch_137">
    <path d="M 833.682845 223.79625 
L 852.252015 223.79625 
L 852.252015 96.12 
L 833.682845 96.12 
z
" clip-path="url(#p51d13013c0)" style="fill: #f77189; fill-opacity: 0.75; stroke: #f0f0f0; stroke-width: 0.5; stroke-linejoin: miter"/>
   </g>
   <g id="patch_138">
    <path d="M 852.252015 205.881458 
L 870.821185 205.881458 
L 870.821185 96.12 
L 852.252015 96.12 
z
" clip-path="url(#p51d13013c0)" style="fill: #f77189; fill-opacity: 0.75; stroke: #f0f0f0; stroke-width: 0.5; stroke-linejoin: miter"/>
   </g>
   <g id="patch_139">
    <path d="M 870.821185 220.462986 
L 889.390355 220.462986 
L 889.390355 96.12 
L 870.821185 96.12 
z
" clip-path="url(#p51d13013c0)" style="fill: #f77189; fill-opacity: 0.75; stroke: #f0f0f0; stroke-width: 0.5; stroke-linejoin: miter"/>
   </g>
   <g id="patch_140">
    <path d="M 889.390355 200.135379 
L 907.959525 200.135379 
L 907.959525 96.12 
L 889.390355 96.12 
z
" clip-path="url(#p51d13013c0)" style="fill: #f77189; fill-opacity: 0.75; stroke: #f0f0f0; stroke-width: 0.5; stroke-linejoin: miter"/>
   </g>
   <g id="patch_141">
    <path d="M 907.959525 205.184348 
L 926.528695 205.184348 
L 926.528695 96.12 
L 907.959525 96.12 
z
" clip-path="url(#p51d13013c0)" style="fill: #f77189; fill-opacity: 0.75; stroke: #f0f0f0; stroke-width: 0.5; stroke-linejoin: miter"/>
   </g>
   <g id="patch_142">
    <path d="M 926.528695 223.675836 
L 945.097865 223.675836 
L 945.097865 96.12 
L 926.528695 96.12 
z
" clip-path="url(#p51d13013c0)" style="fill: #f77189; fill-opacity: 0.75; stroke: #f0f0f0; stroke-width: 0.5; stroke-linejoin: miter"/>
   </g>
   <g id="patch_143">
    <path d="M 945.097865 178.024989 
L 963.667035 178.024989 
L 963.667035 96.12 
L 945.097865 96.12 
z
" clip-path="url(#p51d13013c0)" style="fill: #f77189; fill-opacity: 0.75; stroke: #f0f0f0; stroke-width: 0.5; stroke-linejoin: miter"/>
   </g>
   <g id="patch_144">
    <path d="M 963.667035 136.746383 
L 982.236205 136.746383 
L 982.236205 96.12 
L 963.667035 96.12 
z
" clip-path="url(#p51d13013c0)" style="fill: #f77189; fill-opacity: 0.75; stroke: #f0f0f0; stroke-width: 0.5; stroke-linejoin: miter"/>
   </g>
   <g id="patch_145">
    <path d="M 982.236205 162.339588 
L 1000.805375 162.339588 
L 1000.805375 96.12 
L 982.236205 96.12 
z
" clip-path="url(#p51d13013c0)" style="fill: #f77189; fill-opacity: 0.75; stroke: #f0f0f0; stroke-width: 0.5; stroke-linejoin: miter"/>
   </g>
   <g id="patch_146">
    <path d="M 573.714466 433.08 
L 573.714466 96.12 
" style="fill: none; stroke: #f0f0f0; stroke-width: 3; stroke-linejoin: miter; stroke-linecap: square"/>
   </g>
   <g id="patch_147">
    <path d="M 1000.805375 433.08 
L 1000.805375 96.12 
" style="fill: none; stroke: #f0f0f0; stroke-width: 3; stroke-linejoin: miter; stroke-linecap: square"/>
   </g>
   <g id="patch_148">
    <path d="M 573.714466 433.08 
L 1000.805375 433.08 
" style="fill: none; stroke: #f0f0f0; stroke-width: 3; stroke-linejoin: miter; stroke-linecap: square"/>
   </g>
   <g id="patch_149">
    <path d="M 573.714466 96.12 
L 1000.805375 96.12 
" style="fill: none; stroke: #f0f0f0; stroke-width: 3; stroke-linejoin: miter; stroke-linecap: square"/>
   </g>
   <g id="text_31">
    <!-- Filled histogram -->
    <g transform="translate(716.118745 90.12) scale(0.2016 -0.2016)">
     <defs>
      <path id="ArialMT-46" d="M 525 0 
L 525 4581 
L 3616 4581 
L 3616 4041 
L 1131 4041 
L 1131 2622 
L 3281 2622 
L 3281 2081 
L 1131 2081 
L 1131 0 
L 525 0 
z
" transform="scale(0.015625)"/>
      <path id="ArialMT-6c" d="M 409 0 
L 409 4581 
L 972 4581 
L 972 0 
L 409 0 
z
" transform="scale(0.015625)"/>
     </defs>
     <use xlink:href="#ArialMT-46"/>
     <use xlink:href="#ArialMT-69" x="61.083984"/>
     <use xlink:href="#ArialMT-6c" x="83.300781"/>
     <use xlink:href="#ArialMT-6c" x="105.517578"/>
     <use xlink:href="#ArialMT-65" x="127.734375"/>
     <use xlink:href="#ArialMT-64" x="183.349609"/>
     <use xlink:href="#ArialMT-20" x="238.964844"/>
     <use xlink:href="#ArialMT-68" x="266.748047"/>
     <use xlink:href="#ArialMT-69" x="322.363281"/>
     <use xlink:href="#ArialMT-73" x="344.580078"/>
     <use xlink:href="#ArialMT-74" x="394.580078"/>
     <use xlink:href="#ArialMT-6f" x="422.363281"/>
     <use xlink:href="#ArialMT-67" x="477.978516"/>
     <use xlink:href="#ArialMT-72" x="533.59375"/>
     <use xlink:href="#ArialMT-61" x="566.894531"/>
     <use xlink:href="#ArialMT-6d" x="622.509766"/>
    </g>
   </g>
   <g id="legend_1">
    <g id="patch_150">
     <path d="M 175.4585 56.117812 
L 195.4585 56.117812 
L 195.4585 49.117812 
L 175.4585 49.117812 
z
" style="fill: #f77189; fill-opacity: 0.75; stroke: #f77189; stroke-opacity: 0.75; stroke-width: 0.5; stroke-linejoin: miter"/>
    </g>
    <g id="text_32">
     <!-- cancelled by client with driver assigned -->
     <g transform="translate(203.4585 56.117812) scale(0.1 -0.1)">
      <defs>
       <path id="ArialMT-62" d="M 941 0 
L 419 0 
L 419 4581 
L 981 4581 
L 981 2947 
Q 1338 3394 1891 3394 
Q 2197 3394 2470 3270 
Q 2744 3147 2920 2923 
Q 3097 2700 3197 2384 
Q 3297 2069 3297 1709 
Q 3297 856 2875 390 
Q 2453 -75 1863 -75 
Q 1275 -75 941 416 
L 941 0 
z
M 934 1684 
Q 934 1088 1097 822 
Q 1363 388 1816 388 
Q 2184 388 2453 708 
Q 2722 1028 2722 1663 
Q 2722 2313 2464 2622 
Q 2206 2931 1841 2931 
Q 1472 2931 1203 2611 
Q 934 2291 934 1684 
z
" transform="scale(0.015625)"/>
       <path id="ArialMT-77" d="M 1034 0 
L 19 3319 
L 600 3319 
L 1128 1403 
L 1325 691 
Q 1338 744 1497 1375 
L 2025 3319 
L 2603 3319 
L 3100 1394 
L 3266 759 
L 3456 1400 
L 4025 3319 
L 4572 3319 
L 3534 0 
L 2950 0 
L 2422 1988 
L 2294 2553 
L 1622 0 
L 1034 0 
z
" transform="scale(0.015625)"/>
       <path id="ArialMT-76" d="M 1344 0 
L 81 3319 
L 675 3319 
L 1388 1331 
Q 1503 1009 1600 663 
Q 1675 925 1809 1294 
L 2547 3319 
L 3125 3319 
L 1869 0 
L 1344 0 
z
" transform="scale(0.015625)"/>
      </defs>
      <use xlink:href="#ArialMT-63"/>
      <use xlink:href="#ArialMT-61" x="50"/>
      <use xlink:href="#ArialMT-6e" x="105.615234"/>
      <use xlink:href="#ArialMT-63" x="161.230469"/>
      <use xlink:href="#ArialMT-65" x="211.230469"/>
      <use xlink:href="#ArialMT-6c" x="266.845703"/>
      <use xlink:href="#ArialMT-6c" x="289.0625"/>
      <use xlink:href="#ArialMT-65" x="311.279297"/>
      <use xlink:href="#ArialMT-64" x="366.894531"/>
      <use xlink:href="#ArialMT-20" x="422.509766"/>
      <use xlink:href="#ArialMT-62" x="450.292969"/>
      <use xlink:href="#ArialMT-79" x="505.908203"/>
      <use xlink:href="#ArialMT-20" x="555.908203"/>
      <use xlink:href="#ArialMT-63" x="583.691406"/>
      <use xlink:href="#ArialMT-6c" x="633.691406"/>
      <use xlink:href="#ArialMT-69" x="655.908203"/>
      <use xlink:href="#ArialMT-65" x="678.125"/>
      <use xlink:href="#ArialMT-6e" x="733.740234"/>
      <use xlink:href="#ArialMT-74" x="789.355469"/>
      <use xlink:href="#ArialMT-20" x="817.138672"/>
      <use xlink:href="#ArialMT-77" x="844.921875"/>
      <use xlink:href="#ArialMT-69" x="917.138672"/>
      <use xlink:href="#ArialMT-74" x="939.355469"/>
      <use xlink:href="#ArialMT-68" x="967.138672"/>
      <use xlink:href="#ArialMT-20" x="1022.753906"/>
      <use xlink:href="#ArialMT-64" x="1050.537109"/>
      <use xlink:href="#ArialMT-72" x="1106.152344"/>
      <use xlink:href="#ArialMT-69" x="1139.453125"/>
      <use xlink:href="#ArialMT-76" x="1161.669922"/>
      <use xlink:href="#ArialMT-65" x="1211.669922"/>
      <use xlink:href="#ArialMT-72" x="1267.285156"/>
      <use xlink:href="#ArialMT-20" x="1300.585938"/>
      <use xlink:href="#ArialMT-61" x="1328.369141"/>
      <use xlink:href="#ArialMT-73" x="1383.984375"/>
      <use xlink:href="#ArialMT-73" x="1433.984375"/>
      <use xlink:href="#ArialMT-69" x="1483.984375"/>
      <use xlink:href="#ArialMT-67" x="1506.201172"/>
      <use xlink:href="#ArialMT-6e" x="1561.816406"/>
      <use xlink:href="#ArialMT-65" x="1617.431641"/>
      <use xlink:href="#ArialMT-64" x="1673.046875"/>
     </g>
    </g>
    <g id="patch_151">
     <path d="M 396.31475 56.117812 
L 416.31475 56.117812 
L 416.31475 49.117812 
L 396.31475 49.117812 
z
" style="fill: #50b131; fill-opacity: 0.75; stroke: #50b131; stroke-opacity: 0.75; stroke-width: 0.5; stroke-linejoin: miter"/>
    </g>
    <g id="text_33">
     <!-- cancelled by client without driver assigned -->
     <g transform="translate(424.31475 56.117812) scale(0.1 -0.1)">
      <use xlink:href="#ArialMT-63"/>
      <use xlink:href="#ArialMT-61" x="50"/>
      <use xlink:href="#ArialMT-6e" x="105.615234"/>
      <use xlink:href="#ArialMT-63" x="161.230469"/>
      <use xlink:href="#ArialMT-65" x="211.230469"/>
      <use xlink:href="#ArialMT-6c" x="266.845703"/>
      <use xlink:href="#ArialMT-6c" x="289.0625"/>
      <use xlink:href="#ArialMT-65" x="311.279297"/>
      <use xlink:href="#ArialMT-64" x="366.894531"/>
      <use xlink:href="#ArialMT-20" x="422.509766"/>
      <use xlink:href="#ArialMT-62" x="450.292969"/>
      <use xlink:href="#ArialMT-79" x="505.908203"/>
      <use xlink:href="#ArialMT-20" x="555.908203"/>
      <use xlink:href="#ArialMT-63" x="583.691406"/>
      <use xlink:href="#ArialMT-6c" x="633.691406"/>
      <use xlink:href="#ArialMT-69" x="655.908203"/>
      <use xlink:href="#ArialMT-65" x="678.125"/>
      <use xlink:href="#ArialMT-6e" x="733.740234"/>
      <use xlink:href="#ArialMT-74" x="789.355469"/>
      <use xlink:href="#ArialMT-20" x="817.138672"/>
      <use xlink:href="#ArialMT-77" x="844.921875"/>
      <use xlink:href="#ArialMT-69" x="917.138672"/>
      <use xlink:href="#ArialMT-74" x="939.355469"/>
      <use xlink:href="#ArialMT-68" x="967.138672"/>
      <use xlink:href="#ArialMT-6f" x="1022.753906"/>
      <use xlink:href="#ArialMT-75" x="1078.369141"/>
      <use xlink:href="#ArialMT-74" x="1133.984375"/>
      <use xlink:href="#ArialMT-20" x="1161.767578"/>
      <use xlink:href="#ArialMT-64" x="1189.550781"/>
      <use xlink:href="#ArialMT-72" x="1245.166016"/>
      <use xlink:href="#ArialMT-69" x="1278.466797"/>
      <use xlink:href="#ArialMT-76" x="1300.683594"/>
      <use xlink:href="#ArialMT-65" x="1350.683594"/>
      <use xlink:href="#ArialMT-72" x="1406.298828"/>
      <use xlink:href="#ArialMT-20" x="1439.599609"/>
      <use xlink:href="#ArialMT-61" x="1467.382812"/>
      <use xlink:href="#ArialMT-73" x="1522.998047"/>
      <use xlink:href="#ArialMT-73" x="1572.998047"/>
      <use xlink:href="#ArialMT-69" x="1622.998047"/>
      <use xlink:href="#ArialMT-67" x="1645.214844"/>
      <use xlink:href="#ArialMT-6e" x="1700.830078"/>
      <use xlink:href="#ArialMT-65" x="1756.445312"/>
      <use xlink:href="#ArialMT-64" x="1812.060547"/>
     </g>
    </g>
    <g id="patch_152">
     <path d="M 631.071 56.117812 
L 651.071 56.117812 
L 651.071 49.117812 
L 631.071 49.117812 
z
" style="fill: #3ba3ec; fill-opacity: 0.75; stroke: #3ba3ec; stroke-opacity: 0.75; stroke-width: 0.5; stroke-linejoin: miter"/>
    </g>
    <g id="text_34">
     <!-- cancelled by system without driver assigned -->
     <g transform="translate(659.071 56.117812) scale(0.1 -0.1)">
      <use xlink:href="#ArialMT-63"/>
      <use xlink:href="#ArialMT-61" x="50"/>
      <use xlink:href="#ArialMT-6e" x="105.615234"/>
      <use xlink:href="#ArialMT-63" x="161.230469"/>
      <use xlink:href="#ArialMT-65" x="211.230469"/>
      <use xlink:href="#ArialMT-6c" x="266.845703"/>
      <use xlink:href="#ArialMT-6c" x="289.0625"/>
      <use xlink:href="#ArialMT-65" x="311.279297"/>
      <use xlink:href="#ArialMT-64" x="366.894531"/>
      <use xlink:href="#ArialMT-20" x="422.509766"/>
      <use xlink:href="#ArialMT-62" x="450.292969"/>
      <use xlink:href="#ArialMT-79" x="505.908203"/>
      <use xlink:href="#ArialMT-20" x="555.908203"/>
      <use xlink:href="#ArialMT-73" x="583.691406"/>
      <use xlink:href="#ArialMT-79" x="633.691406"/>
      <use xlink:href="#ArialMT-73" x="683.691406"/>
      <use xlink:href="#ArialMT-74" x="733.691406"/>
      <use xlink:href="#ArialMT-65" x="761.474609"/>
      <use xlink:href="#ArialMT-6d" x="817.089844"/>
      <use xlink:href="#ArialMT-20" x="900.390625"/>
      <use xlink:href="#ArialMT-77" x="928.173828"/>
      <use xlink:href="#ArialMT-69" x="1000.390625"/>
      <use xlink:href="#ArialMT-74" x="1022.607422"/>
      <use xlink:href="#ArialMT-68" x="1050.390625"/>
      <use xlink:href="#ArialMT-6f" x="1106.005859"/>
      <use xlink:href="#ArialMT-75" x="1161.621094"/>
      <use xlink:href="#ArialMT-74" x="1217.236328"/>
      <use xlink:href="#ArialMT-20" x="1245.019531"/>
      <use xlink:href="#ArialMT-64" x="1272.802734"/>
      <use xlink:href="#ArialMT-72" x="1328.417969"/>
      <use xlink:href="#ArialMT-69" x="1361.71875"/>
      <use xlink:href="#ArialMT-76" x="1383.935547"/>
      <use xlink:href="#ArialMT-65" x="1433.935547"/>
      <use xlink:href="#ArialMT-72" x="1489.550781"/>
      <use xlink:href="#ArialMT-20" x="1522.851562"/>
      <use xlink:href="#ArialMT-61" x="1550.634766"/>
      <use xlink:href="#ArialMT-73" x="1606.25"/>
      <use xlink:href="#ArialMT-73" x="1656.25"/>
      <use xlink:href="#ArialMT-69" x="1706.25"/>
      <use xlink:href="#ArialMT-67" x="1728.466797"/>
      <use xlink:href="#ArialMT-6e" x="1784.082031"/>
      <use xlink:href="#ArialMT-65" x="1839.697266"/>
      <use xlink:href="#ArialMT-64" x="1895.3125"/>
     </g>
    </g>
   </g>
  </g>
  <g id="text_35">
   <!-- The distribution of orders according to the hour of the day -->
   <g transform="translate(159.181312 27.583125) scale(0.28 -0.28)">
    <defs>
     <path id="ArialMT-54" d="M 1659 0 
L 1659 4041 
L 150 4041 
L 150 4581 
L 3781 4581 
L 3781 4041 
L 2266 4041 
L 2266 0 
L 1659 0 
z
" transform="scale(0.015625)"/>
     <path id="ArialMT-66" d="M 556 0 
L 556 2881 
L 59 2881 
L 59 3319 
L 556 3319 
L 556 3672 
Q 556 4006 616 4169 
Q 697 4388 901 4523 
Q 1106 4659 1475 4659 
Q 1713 4659 2000 4603 
L 1916 4113 
Q 1741 4144 1584 4144 
Q 1328 4144 1222 4034 
Q 1116 3925 1116 3625 
L 1116 3319 
L 1763 3319 
L 1763 2881 
L 1116 2881 
L 1116 0 
L 556 0 
z
" transform="scale(0.015625)"/>
    </defs>
    <use xlink:href="#ArialMT-54"/>
    <use xlink:href="#ArialMT-68" x="61.083984"/>
    <use xlink:href="#ArialMT-65" x="116.699219"/>
    <use xlink:href="#ArialMT-20" x="172.314453"/>
    <use xlink:href="#ArialMT-64" x="200.097656"/>
    <use xlink:href="#ArialMT-69" x="255.712891"/>
    <use xlink:href="#ArialMT-73" x="277.929688"/>
    <use xlink:href="#ArialMT-74" x="327.929688"/>
    <use xlink:href="#ArialMT-72" x="355.712891"/>
    <use xlink:href="#ArialMT-69" x="389.013672"/>
    <use xlink:href="#ArialMT-62" x="411.230469"/>
    <use xlink:href="#ArialMT-75" x="466.845703"/>
    <use xlink:href="#ArialMT-74" x="522.460938"/>
    <use xlink:href="#ArialMT-69" x="550.244141"/>
    <use xlink:href="#ArialMT-6f" x="572.460938"/>
    <use xlink:href="#ArialMT-6e" x="628.076172"/>
    <use xlink:href="#ArialMT-20" x="683.691406"/>
    <use xlink:href="#ArialMT-6f" x="711.474609"/>
    <use xlink:href="#ArialMT-66" x="767.089844"/>
    <use xlink:href="#ArialMT-20" x="794.873047"/>
    <use xlink:href="#ArialMT-6f" x="822.65625"/>
    <use xlink:href="#ArialMT-72" x="878.271484"/>
    <use xlink:href="#ArialMT-64" x="911.572266"/>
    <use xlink:href="#ArialMT-65" x="967.1875"/>
    <use xlink:href="#ArialMT-72" x="1022.802734"/>
    <use xlink:href="#ArialMT-73" x="1056.103516"/>
    <use xlink:href="#ArialMT-20" x="1106.103516"/>
    <use xlink:href="#ArialMT-61" x="1133.886719"/>
    <use xlink:href="#ArialMT-63" x="1189.501953"/>
    <use xlink:href="#ArialMT-63" x="1239.501953"/>
    <use xlink:href="#ArialMT-6f" x="1289.501953"/>
    <use xlink:href="#ArialMT-72" x="1345.117188"/>
    <use xlink:href="#ArialMT-64" x="1378.417969"/>
    <use xlink:href="#ArialMT-69" x="1434.033203"/>
    <use xlink:href="#ArialMT-6e" x="1456.25"/>
    <use xlink:href="#ArialMT-67" x="1511.865234"/>
    <use xlink:href="#ArialMT-20" x="1567.480469"/>
    <use xlink:href="#ArialMT-74" x="1595.263672"/>
    <use xlink:href="#ArialMT-6f" x="1623.046875"/>
    <use xlink:href="#ArialMT-20" x="1678.662109"/>
    <use xlink:href="#ArialMT-74" x="1706.445312"/>
    <use xlink:href="#ArialMT-68" x="1734.228516"/>
    <use xlink:href="#ArialMT-65" x="1789.84375"/>
    <use xlink:href="#ArialMT-20" x="1845.458984"/>
    <use xlink:href="#ArialMT-68" x="1873.242188"/>
    <use xlink:href="#ArialMT-6f" x="1928.857422"/>
    <use xlink:href="#ArialMT-75" x="1984.472656"/>
    <use xlink:href="#ArialMT-72" x="2040.087891"/>
    <use xlink:href="#ArialMT-20" x="2073.388672"/>
    <use xlink:href="#ArialMT-6f" x="2101.171875"/>
    <use xlink:href="#ArialMT-66" x="2156.787109"/>
    <use xlink:href="#ArialMT-20" x="2184.570312"/>
    <use xlink:href="#ArialMT-74" x="2212.353516"/>
    <use xlink:href="#ArialMT-68" x="2240.136719"/>
    <use xlink:href="#ArialMT-65" x="2295.751953"/>
    <use xlink:href="#ArialMT-20" x="2351.367188"/>
    <use xlink:href="#ArialMT-64" x="2379.150391"/>
    <use xlink:href="#ArialMT-61" x="2434.765625"/>
    <use xlink:href="#ArialMT-79" x="2490.380859"/>
   </g>
  </g>
 </g>
 <defs>
  <clipPath id="p415b737f50">
   <rect x="61.205375" y="96.12" width="427.090909" height="336.96"/>
  </clipPath>
  <clipPath id="p51d13013c0">
   <rect x="573.714466" y="96.12" width="427.090909" height="336.96"/>
  </clipPath>
 </defs>
</svg>
